<?xml version="1.0" standalone="no"?>
<!DOCTYPE svg PUBLIC "-//W3C//DTD SVG 1.1//EN" "http://www.w3.org/Graphics/SVG/1.1/DTD/svg11.dtd" >
<svg xmlns="http://www.w3.org/2000/svg">
<metadata></metadata>
<defs>
<font id="fs_joeylight" horiz-adv-x="1048" >
<font-face units-per-em="2048" ascent="1536" descent="-512" />
<missing-glyph horiz-adv-x="462" />
<glyph unicode="&#xfb01;" horiz-adv-x="980" d="M45 934v39q0 11 12 14l129 17v75q0 123 37 193q69 133 301 133q133 0 232 -39q19 -7 16 -25l-6 -32q-3 -21 -23 -15q-109 31 -217 31q-127 0 -182 -41q-41 -31 -55.5 -79t-14.5 -138v-63h510q17 0 17 -17v-971q0 -16 -17 -16h-57q-14 0 -14 16v906h-439v-906 q0 -16 -16 -16h-57q-15 0 -15 16v906h-129q-12 0 -12 12z" />
<glyph unicode="&#xfb02;" horiz-adv-x="1042" d="M45 936v39q0 11 12 14l129 17v75q0 123 37 193q70 133 289 133q102 0 211 -33l68 15q16 0 16 -17v-1143q0 -87 22 -116t82 -29h54q8 0 11 -2.5t3 -11.5v-52q0 -16 -16 -16h-48q-109 0 -152.5 47t-43.5 170v1073q-87 35 -205 35q-121 0 -170 -41q-40 -33 -55 -81t-15 -136 v-63h224q16 0 16 -15v-53q0 -14 -16 -14h-224v-906q0 -16 -16 -16h-57q-15 0 -15 16v906h-129q-12 0 -12 12z" />
<glyph horiz-adv-x="2048" />
<glyph horiz-adv-x="2048" />
<glyph unicode="&#xd;" horiz-adv-x="2048" />
<glyph unicode=" "  horiz-adv-x="462" />
<glyph unicode="&#x09;" horiz-adv-x="462" />
<glyph unicode="&#xa0;" horiz-adv-x="462" />
<glyph unicode="!" horiz-adv-x="442" d="M143 53v41q0 74 66 74h24q66 0 66 -74v-41q0 -71 -66 -71h-24q-66 0 -66 71zM172 1296q0 21 21 21h55q20 0 20 -21l-8 -989q0 -20 -16 -20h-47q-17 0 -17 20z" />
<glyph unicode="&#x22;" horiz-adv-x="610" d="M100 1380q-1 18 5.5 23.5t25.5 5.5h47q18 0 24.5 -5.5t6.5 -23.5l-14 -430q0 -24 -23 -24h-35q-22 0 -22 24zM403 1380q-1 18 5.5 23.5t25.5 5.5h47q18 0 24.5 -5.5t6.5 -23.5l-14 -430q0 -24 -23 -24h-35q-22 0 -22 24z" />
<glyph unicode="#" horiz-adv-x="1218" d="M2 422l12 49q5 14 29 14h256l80 361h-273q-13 0 -18 4.5t-2 13.5l12 49q5 15 29 15h266l82 375q5 20 21 20h57q18 0 12 -20l-80 -375h342l82 375q5 20 21 20h53q11 0 14 -4t0 -16l-79 -375h278q27 0 21 -19l-13 -49q-5 -14 -28 -14h-275l-78 -361h289q27 0 21 -18 l-13 -49q-5 -15 -28 -15h-285l-82 -383q-5 -20 -25 -20h-47q-19 0 -16 20l80 383h-342l-82 -383q-5 -20 -23 -20h-53q-17 0 -14 20l80 383h-260q-27 0 -21 19zM391 483h342l80 363h-344z" />
<glyph unicode="$" d="M137 94l15 47q7 20 28 11q134 -60 312 -60h16v555l-66 17q-151 38 -227 110.5t-76 194.5v35q0 144 93 225t264 92v184q0 25 20 25h39q20 0 20 -25v-182q164 -7 263 -41q12 -5 15.5 -10.5t0.5 -20.5l-8 -41q-5 -20 -33 -12q-102 31 -238 37v-508l33 -8q175 -43 243.5 -114 t68.5 -210v-37q0 -157 -88.5 -243.5t-245.5 -106.5v-201q0 -24 -25 -24h-29q-24 0 -24 24v197h-14q-181 0 -344 64q-20 9 -13 26zM244 983q0 -57 18 -98.5t55.5 -68t77.5 -42.5t101 -31v492q-252 -15 -252 -231v-21zM586 98q115 18 173 83t58 169v23q0 116 -52.5 172 t-178.5 84v-531z" />
<glyph unicode="%" horiz-adv-x="1497" d="M102 973v24q0 208 78 289q54 57 168 57t168 -57q78 -81 78 -289v-24q0 -208 -78 -289q-54 -57 -168 -57t-168 57q-78 81 -78 289zM188 975q0 -155 40 -216t120 -61t120 61t40 216v20q0 106 -20 168.5t-53.5 85.5t-86.5 23t-86.5 -23t-53.5 -85.5t-20 -168.5v-20zM334 -2 l725 1333q7 12 22 12h68q18 0 10 -16l-725 -1333q-7 -12 -22 -12h-68q-18 0 -10 16zM903 328v24q0 208 78 289q54 57 168 57t168 -57q78 -81 78 -289v-24q0 -208 -78 -289q-54 -57 -168 -57t-168 57q-78 81 -78 289zM989 330q0 -155 40 -216t120 -61t120 61t40 216v20 q0 106 -20 168.5t-53.5 85.5t-86.5 23t-86.5 -23t-53.5 -85.5t-20 -168.5v-20z" />
<glyph unicode="&#x26;" horiz-adv-x="1243" d="M100 313v31q0 264 258 379q-88 88 -124.5 165.5t-36.5 162.5v8q0 129 81 206.5t224 77.5q147 0 224 -76.5t77 -201.5v-21q0 -125 -53.5 -219.5t-190.5 -169.5l352 -350q25 80 25 197v149q0 12 4.5 16.5t17.5 4.5h50q20 0 20 -23v-137q0 -171 -41 -281l184 -180 q17 -17 0 -33l-30 -28q-10 -9 -18 -8.5t-21 12.5l-158 153q-109 -165 -383 -165h-82q-188 0 -283.5 87.5t-95.5 243.5zM203 322q0 -256 289 -256h49q132 0 214.5 35.5t121.5 113.5l-463 455q-116 -57 -163.5 -133t-47.5 -193v-22zM299 1042q0 -71 38.5 -139.5t141.5 -169.5 l25 -24q115 66 158 141t43 199v12q0 100 -55.5 150.5t-143.5 50.5q-108 0 -157.5 -53t-49.5 -158v-9z" />
<glyph unicode="'" horiz-adv-x="307" d="M100 1380q-1 18 5.5 23.5t25.5 5.5h47q18 0 24.5 -5.5t6.5 -23.5l-14 -430q0 -24 -23 -24h-35q-22 0 -22 24z" />
<glyph unicode="(" horiz-adv-x="557" d="M154 590q0 454 288 835q12 15 29 5l33 -21q18 -11 6 -27q-254 -340 -254 -792q0 -453 254 -793q12 -16 -6 -26l-33 -21q-10 -6 -16 -5.5t-13 9.5q-288 378 -288 836z" />
<glyph unicode=")" horiz-adv-x="557" d="M47 -203q254 340 254 793q0 452 -254 792q-12 16 6 27l33 21q17 10 29 -5q288 -381 288 -835q0 -458 -288 -836q-7 -9 -13 -9.5t-16 5.5l-33 21q-18 10 -6 26z" />
<glyph unicode="*" horiz-adv-x="675" d="M57 1245l25 60q9 27 35 12l196 -105l-32 240q-3 18 2.5 24.5t21.5 6.5h66q16 0 21.5 -6.5t2.5 -24.5l-33 -240l197 105q26 15 35 -12l24 -60q9 -25 -20 -31l-219 -55l174 -186q22 -22 0 -37l-55 -37q-25 -16 -39 10l-121 211l-121 -211q-14 -26 -39 -10l-55 37 q-22 15 0 37l174 186l-219 55q-30 6 -21 31z" />
<glyph unicode="+" d="M109 504v61q0 15 12 15h358v356q0 14 15 14h61q12 0 12 -14v-356h359q12 0 12 -13v-63q0 -12 -12 -12h-359v-359q0 -14 -12 -14h-61q-15 0 -15 14v359h-358q-12 0 -12 12z" />
<glyph unicode="," horiz-adv-x="366" d="M109 43v68q0 67 65 67h27q40 0 60 -19.5t20 -66.5v-41q0 -150 -107 -309q-8 -14 -22 -6l-39 22q-13 6 -2 21q55 83 75 158q6 25 -16 36l-25 11q-36 14 -36 59z" />
<glyph unicode="-" horiz-adv-x="563" d="M72 504v61q0 15 14 15h391q15 0 15 -15v-61q0 -15 -15 -15h-391q-14 0 -14 15z" />
<glyph unicode="." horiz-adv-x="378" d="M109 49v55q0 68 69 68h21q40 0 55.5 -16.5t15.5 -51.5v-55q0 -35 -15.5 -51t-55.5 -16h-21q-69 0 -69 67z" />
<glyph unicode="/" horiz-adv-x="630" d="M53 -33l428 1428q5 18 23 18h57q12 0 16 -4t1 -16l-428 -1428q-5 -18 -23 -18h-57q-23 0 -17 20z" />
<glyph unicode="0" d="M127 635v55q0 150 18.5 263.5t51.5 187t83.5 119.5t109 64.5t134.5 18.5t135 -18.5t109.5 -64.5t83.5 -119.5t51.5 -187t18.5 -263.5v-55q0 -150 -18.5 -263.5t-51.5 -187t-83.5 -119.5t-109.5 -64.5t-135 -18.5t-134.5 18.5t-109 64.5t-83.5 119.5t-51.5 187 t-18.5 263.5zM229 649q0 -114 7.5 -199.5t27.5 -160.5t52.5 -122t84.5 -74t123 -27t123 27t84.5 74t52.5 122t27.5 160.5t7.5 199.5v27q0 114 -7.5 199.5t-27.5 160.5t-52.5 122.5t-84.5 74.5t-123 27t-123 -27t-84.5 -74.5t-52.5 -122.5t-27.5 -160.5t-7.5 -199.5v-27z" />
<glyph unicode="1" d="M164 16v45q0 19 18 19h316v1151h-9l-239 -148q-15 -9 -23 4l-26 48q-8 13 8 24l240 150q27 16 69 16h41q33 0 33 -31v-1214h313q19 0 19 -19v-45q0 -16 -19 -16h-723q-18 0 -18 16z" />
<glyph unicode="2" d="M166 35v190q0 84 10 142.5t37.5 111t78 91t128.5 71.5l147 61q127 54 173 117.5t46 169.5v15q0 142 -66 197.5t-210 55.5q-150 0 -289 -47q-25 -8 -31 17l-8 37q-5 22 17 28q63 22 153.5 36.5t159.5 14.5q190 0 283.5 -74.5t93.5 -258.5v-23q0 -138 -61.5 -214.5 t-213.5 -143.5l-145 -64q-94 -41 -136.5 -82t-57.5 -102t-15 -182v-119h588q18 0 18 -19v-45q0 -16 -18 -16h-647q-21 0 -28 7t-7 28z" />
<glyph unicode="3" d="M156 57l8 35q4 21 29 14q141 -45 286 -45q139 0 219 68t80 211v20q0 75 -17.5 128.5t-47.5 86.5t-79 52t-102.5 25.5t-128.5 6.5h-55q-20 0 -20 19v53q0 19 20 19h55q191 0 271 62t80 196v20q0 116 -65 172.5t-185 56.5q-133 0 -260 -43q-23 -8 -29 15l-8 37q-5 19 16 28 q128 49 285 49q173 0 260.5 -80.5t87.5 -226.5v-28q0 -231 -211 -297v-9q105 -22 170.5 -104t65.5 -223v-23q0 -190 -104 -280t-288 -90q-167 0 -317 47q-19 7 -16 28z" />
<glyph unicode="4" d="M76 389v21q0 27 30 75l492 799q14 23 30.5 32t47.5 9h69q39 0 39 -37v-852h146q18 0 18 -18v-45q0 -17 -18 -17h-146v-333q0 -23 -18 -23h-57q-19 0 -19 23v333h-584q-16 0 -23 7t-7 26zM178 436h512v807h-16z" />
<glyph unicode="5" d="M143 76l13 39q6 20 32 8q132 -57 295 -57q156 0 238 79t82 258v17q0 152 -68 237q-65 80 -203 80q-143 0 -266 -75q-21 -12 -35 -9l-28 9q-18 6 -15 26l41 610q3 27 31 27h531q22 0 22 -22v-41q0 -25 -22 -25h-459q-19 0 -19 -16l-32 -467q107 69 260 69q170 0 264 -94 q100 -103 100 -311v-17q0 -214 -112 -317q-111 -102 -322 -102q-74 0 -162 17.5t-149 45.5q-23 10 -17 31z" />
<glyph unicode="6" d="M133 612v19q0 191 41.5 337t112.5 232q118 143 350 143q106 0 186 -26q13 -4 16.5 -10.5t0.5 -18.5l-9 -33q-3 -12 -8.5 -15.5t-19.5 -0.5q-95 21 -176 21q-80 0 -143 -26.5t-106.5 -73.5t-73 -117.5t-45 -153t-21.5 -184.5q132 118 321 118q168 0 265.5 -102.5 t97.5 -280.5v-39q0 -187 -109.5 -303t-269.5 -116q-212 0 -311 160.5t-99 469.5zM236 600q0 -532 311 -532q125 0 198.5 90t73.5 245v27q0 153 -72.5 230t-203.5 77q-180 0 -307 -137z" />
<glyph unicode="7" d="M135 1262v41q0 22 23 22h749q19 0 25 -6t6 -23v-26q0 -9 -1.5 -17.5t-3 -15t-7 -18t-8 -17t-11 -22t-12.5 -23.5l-573 -1134q-12 -23 -37 -23h-52q-33 0 -20 25l623 1212h-678q-23 0 -23 25z" />
<glyph unicode="8" d="M129 338v8q0 115 61.5 206t171.5 142q-102 47 -152 127t-50 170v27q0 144 98.5 234.5t265.5 90.5q174 0 264.5 -86.5t90.5 -222.5v-26q0 -103 -59 -191.5t-161 -148.5q128 -46 193.5 -127.5t65.5 -186.5v-18q0 -170 -109 -262t-285 -92q-181 0 -288 87t-107 269zM233 326 q0 -127 80.5 -195t210.5 -68q132 0 209.5 70.5t77.5 200.5v12q0 96 -60.5 158.5t-189.5 109.5l-117 43q-211 -98 -211 -315v-16zM268 997q0 -99 56.5 -161t175.5 -107l75 -29q102 63 149.5 135t47.5 173v14q0 109 -63 174.5t-185 65.5t-189 -67.5t-67 -178.5v-19z" />
<glyph unicode="9" d="M119 891v39q0 183 105 298t290 115q114 0 194 -46.5t124.5 -134t63.5 -197t19 -252.5v-21q0 -128 -14.5 -232t-49.5 -194.5t-89 -152t-137 -96.5t-191 -35q-131 0 -223 30q-13 4 -15.5 9.5t-0.5 17.5l8 37q5 21 30 16q122 -29 201 -29q373 0 377 576 q-57 -60 -146.5 -98.5t-189.5 -38.5q-166 0 -261 106.5t-95 282.5zM225 897q0 -154 69.5 -231.5t199.5 -77.5q80 0 164 36.5t153 104.5q0 535 -293 535q-146 0 -219.5 -90.5t-73.5 -253.5v-23z" />
<glyph unicode=":" horiz-adv-x="378" d="M109 49v55q0 68 69 68h21q40 0 55.5 -16.5t15.5 -51.5v-55q0 -35 -15.5 -51t-55.5 -16h-21q-69 0 -69 67zM109 829v56q0 67 69 67h21q40 0 55.5 -16t15.5 -51v-56q0 -35 -15.5 -51t-55.5 -16h-21q-69 0 -69 67z" />
<glyph unicode=";" horiz-adv-x="366" d="M109 43v68q0 67 65 67h27q40 0 60 -19.5t20 -66.5v-41q0 -150 -107 -309q-8 -14 -22 -6l-39 22q-13 6 -2 21q55 83 75 158q6 25 -16 36l-25 11q-36 14 -36 59zM111 829v56q0 67 69 67h21q40 0 55.5 -16t15.5 -51v-56q0 -35 -15.5 -51t-55.5 -16h-21q-69 0 -69 67z" />
<glyph unicode="&#x3c;" d="M174 516v37q0 13 10 18l631 342q22 12 31 -4l22 -43q12 -20 -8 -30l-559 -299l559 -299q20 -10 8 -31l-22 -43q-9 -16 -31 -4l-631 338q-10 5 -10 18z" />
<glyph unicode="=" d="M109 322v61q0 14 12 14h805q12 0 12 -12v-63q0 -13 -12 -13h-805q-12 0 -12 13zM109 686v62q0 14 12 14h805q12 0 12 -12v-64q0 -12 -12 -12h-805q-12 0 -12 12z" />
<glyph unicode="&#x3e;" d="M180 207q-12 21 8 31l560 299l-560 299q-20 10 -8 30l23 43q9 16 30 4l631 -342q10 -5 10 -18v-37q0 -13 -10 -18l-631 -338q-21 -12 -30 4z" />
<glyph unicode="?" horiz-adv-x="907" d="M92 1268q-3 17 10 22q146 53 320 53q383 0 383 -319v-25q0 -97 -46.5 -173.5t-150.5 -147.5l-102 -70q-61 -42 -88 -73.5t-37 -71.5t-10 -115v-57q0 -23 -19 -23h-57q-19 0 -19 23v57q0 126 30 189t128 129l101 67q69 47 102.5 79t51.5 77t18 112v15q0 248 -293 248 q-150 0 -291 -52q-18 -6 -21 13zM248 53v29q0 74 65 74h25q65 0 65 -74v-29q0 -71 -65 -71h-25q-65 0 -65 71z" />
<glyph unicode="@" horiz-adv-x="1593" d="M106 625q0 226 90.5 398.5t257 266.5t386.5 94q140 0 260 -42.5t207.5 -120t137.5 -194t50 -257.5q0 -232 -94 -356.5t-242 -124.5q-90 0 -150 41t-71 100q-28 -55 -86 -92t-129 -37q-98 0 -155.5 63.5t-57.5 184.5q0 51 10.5 127.5t24.5 130.5q27 101 93.5 158t162.5 57 q62 0 110 -28t72 -74l12 53q4 13 9.5 16.5t19.5 3.5h29q15 0 20 -4t4 -20l-45 -348q-12 -86 -12 -119q0 -64 35 -99.5t108 -35.5q119 0 181.5 107t62.5 288q0 240 -152.5 388t-418.5 148q-284 0 -459.5 -178t-175.5 -485q0 -201 82.5 -339.5t224.5 -203.5t334 -65 q217 0 391 75q22 9 29 -10l10 -29q8 -22 -15 -32q-80 -39 -197 -62.5t-233 -23.5q-340 0 -530.5 181t-190.5 499zM598 551q0 -170 135 -170q86 0 140.5 58.5t68.5 164.5l12 101q7 58 7 75q0 74 -36.5 119t-115.5 45q-74 0 -119.5 -43t-66.5 -139q-25 -112 -25 -211z" />
<glyph unicode="A" d="M57 23q199 789 375 1263q9 25 19.5 32t35.5 7h72q25 0 36.5 -7t20.5 -32q170 -467 375 -1263q1 -5 1 -9q0 -14 -13 -14h-68q-17 0 -20 16q-58 236 -117 441h-500q-53 -183 -116 -441q-3 -16 -21 -16h-67q-14 0 -14 14q0 4 1 9zM297 543h455q-135 469 -213 700h-29 q-78 -231 -213 -700z" />
<glyph unicode="B" horiz-adv-x="1024" d="M147 51v1215q0 33 35 43q101 34 273 34q197 0 296 -75t99 -232v-30q0 -121 -51.5 -198.5t-149.5 -100.5v-7q137 -14 210 -90.5t73 -212.5v-28q0 -102 -32 -174t-95.5 -114.5t-149 -61.5t-200.5 -19q-187 0 -269 10q-22 3 -30.5 12t-8.5 29zM242 119q0 -14 5.5 -20 t18.5 -7q53 -6 183 -6q65 0 113 4.5t101.5 21.5t87.5 46t56 81.5t22 125.5v22q0 153 -88.5 207.5t-308.5 54.5h-190v-530zM242 735h170q81 0 138.5 12t104 42t70 86t23.5 139v18q0 124 -74.5 174.5t-224.5 50.5q-121 0 -189 -18q-18 -5 -18 -25v-479z" />
<glyph unicode="C" horiz-adv-x="1007" d="M115 604v119q0 223 31.5 341.5t117.5 190.5q103 88 309 88q198 0 340 -83q18 -10 9 -31l-17 -37q-9 -18 -31 -6q-145 71 -299 71q-86 0 -147 -17t-106 -62q-63 -63 -86 -174t-23 -308v-65q0 -215 18 -308t76 -163q41 -50 106 -71t179 -21q146 0 295 55q22 7 28 -14 l11 -43q1 -3 1 -6q0 -13 -14 -19q-145 -59 -331 -59q-140 0 -227 32t-142 101q-57 71 -77.5 172t-20.5 317z" />
<glyph unicode="D" horiz-adv-x="1163" d="M147 37v1259q0 36 37 41q110 11 256 11q126 0 217 -16t168.5 -57t124.5 -111t73 -179.5t26 -261.5v-96q0 -166 -28 -281t-93 -194t-170.5 -115.5t-259.5 -36.5h-310q-41 0 -41 37zM242 104q0 -18 16 -18h188q139 0 225 19.5t144 70.5q69 60 102 169.5t33 297.5v55 q0 179 -30 279.5t-93 169.5q-59 65 -151.5 90t-226.5 25q-104 0 -183 -5q-24 -3 -24 -28v-1125z" />
<glyph unicode="E" horiz-adv-x="931" d="M129 604v117q0 226 12 407q6 100 47 144q50 53 172 53h476q22 0 22 -22v-41q0 -23 -22 -23h-469q-72 0 -97 -25t-30 -100q-13 -187 -13 -385h500q23 0 23 -22v-41q0 -23 -23 -23h-500q0 -192 13 -432q5 -75 30 -100t97 -25h469q22 0 22 -23v-40q0 -23 -22 -23h-476 q-124 0 -170 49q-23 25 -33.5 59.5t-15.5 88.5q-12 127 -12 407z" />
<glyph unicode="F" horiz-adv-x="876" d="M147 23v1091q0 125 56 170q49 41 166 41h419q23 0 23 -22v-39q0 -25 -23 -25h-411q-82 0 -109 -27q-26 -26 -26 -110v-367h473q22 0 22 -22v-41q0 -23 -22 -23h-473v-626q0 -23 -19 -23h-57q-19 0 -19 23z" />
<glyph unicode="G" horiz-adv-x="1124" d="M115 602v119q0 323 119 472.5t391 149.5q184 0 329 -49q15 -5 19.5 -10t1.5 -18l-8 -39q-6 -23 -33 -15q-153 45 -301 45q-113 0 -188.5 -26t-129 -89.5t-78 -173t-24.5 -274.5v-61q0 -311 93.5 -438t328.5 -127q129 0 239 20q31 5 31 37v477h-229q-23 0 -23 23v41 q0 22 23 22h303q20 0 20 -20v-602q0 -40 -38 -48q-148 -36 -330 -36q-146 0 -245.5 37t-159 116t-85.5 192t-26 275z" />
<glyph unicode="H" horiz-adv-x="1181" d="M147 23v1280q0 22 19 22h57q19 0 19 -22v-572h698v572q0 22 18 22h58q18 0 18 -22v-1280q0 -23 -18 -23h-58q-18 0 -18 23v622h-698v-622q0 -23 -19 -23h-57q-19 0 -19 23z" />
<glyph unicode="I" horiz-adv-x="413" d="M160 23v1280q0 22 18 22h58q18 0 18 -22v-1280q0 -23 -18 -23h-58q-18 0 -18 23z" />
<glyph unicode="J" horiz-adv-x="575" d="M41 23v40q0 23 22 23h76q138 0 178 78q8 15 12.5 32.5t6.5 44.5t2.5 40.5t0 54.5t-0.5 53v914q0 22 18 22h58q18 0 18 -22v-910q0 -14 0.5 -50.5t0.5 -56.5t-2 -50.5t-8 -56t-15 -48.5q-53 -131 -269 -131h-76q-22 0 -22 23z" />
<glyph unicode="K" horiz-adv-x="974" d="M147 23v1280q0 22 19 22h57q19 0 19 -22v-578h164q26 0 38.5 6t24.5 25l379 557q7 12 29 12h63q14 0 14 -8q0 -4 -4 -10l-387 -574q-16 -24 -16 -37q0 -10 16 -39l379 -630q15 -27 -14 -27h-62q-19 0 -30 16l-357 598q-10 17 -22 21t-43 4h-172v-616q0 -23 -19 -23h-57 q-19 0 -19 23z" />
<glyph unicode="L" horiz-adv-x="727" d="M147 160v1143q0 22 19 22h57q19 0 19 -22v-1125q0 -56 18.5 -74t71.5 -18h336q22 0 22 -23v-40q0 -23 -22 -23h-342q-97 0 -136 33q-43 37 -43 127z" />
<glyph unicode="M" horiz-adv-x="1486" d="M104 23q25 645 82 1249q3 28 16.5 40.5t43.5 12.5h61q31 0 44.5 -10.5t25.5 -42.5q217 -603 362 -967h9q145 364 362 967q12 32 25.5 42.5t44.5 10.5h61q30 0 43 -12t16 -41q57 -604 82 -1249q0 -23 -16 -23h-61q-21 0 -21 16q-28 681 -76 1227h-12q-160 -457 -356 -948 q-15 -39 -30 -52.5t-44 -13.5h-47q-29 0 -43 13.5t-29 52.5q-196 491 -356 948h-12q-48 -546 -76 -1227q0 -16 -21 -16h-61q-17 0 -17 23z" />
<glyph unicode="N" horiz-adv-x="1220" d="M147 23v1237q0 38 14 51.5t50 13.5h41q39 0 57 -12t37 -49l623 -1182h12v1221q0 22 18 22h54q20 0 20 -22v-1242q0 -33 -12.5 -47t-42.5 -14h-55q-50 0 -72 43l-639 1200h-12v-1220q0 -23 -19 -23h-53q-21 0 -21 23z" />
<glyph unicode="O" horiz-adv-x="1163" d="M115 604v115q0 201 27 315.5t94 188.5q105 120 346 120t346 -120q67 -74 94 -188.5t27 -315.5v-115q0 -200 -27 -314t-94 -188q-105 -120 -346 -120t-346 120q-67 74 -94 188t-27 314zM213 633q0 -182 20 -287.5t74 -173.5q39 -51 112.5 -77.5t162.5 -26.5t162 26.5 t112 77.5q54 68 74 173.5t20 287.5v59q0 192 -20 293t-74 170q-38 51 -111 76.5t-163 25.5t-163.5 -25.5t-111.5 -76.5q-54 -69 -74 -170t-20 -293v-59z" />
<glyph unicode="P" horiz-adv-x="991" d="M147 23v1253q0 37 31 43q130 24 266 24q255 0 365.5 -91t110.5 -302v-24q0 -404 -459 -404q-139 0 -219 2v-501q0 -23 -19 -23h-57q-19 0 -19 23zM242 614q99 -6 209 -6q194 0 282 70.5t88 249.5v18q0 162 -86 236.5t-282 74.5q-97 0 -183 -14q-28 -6 -28 -37v-592z" />
<glyph unicode="Q" horiz-adv-x="1163" d="M115 604v115q0 201 27 315.5t94 188.5q105 120 346 120t346 -120q67 -74 94 -188.5t27 -315.5v-115q0 -200 -27 -314t-94 -188q-87 -100 -281 -116q47 -71 111.5 -131t165.5 -127q22 -15 -2 -33l-33 -25q-12 -8 -19 -9h-2q-8 0 -26 9q-171 105 -305 314q-207 9 -301 118 q-67 74 -94 188t-27 314zM213 633q0 -183 20.5 -291t73.5 -176q39 -51 112.5 -78t162.5 -27t162 27t112 78q53 68 73.5 176t20.5 291v59q0 193 -20 296.5t-74 172.5q-38 51 -111 77t-163 26t-163.5 -26t-111.5 -77q-54 -69 -74 -172.5t-20 -296.5v-59z" />
<glyph unicode="R" horiz-adv-x="1030" d="M147 23v1253q0 37 31 43q130 24 266 24q258 0 367 -82.5t109 -285.5v-23q0 -318 -279 -372l324 -555q3 -6 3 -11q0 -4 -2 -7q-4 -7 -16 -7h-65q-25 0 -35 18l-309 547q-27 -2 -84 -2q-139 0 -215 4v-544q0 -23 -19 -23h-57q-19 0 -19 23zM242 655q99 -6 202 -6 q98 0 165 14t116.5 48t72.5 95t23 152v19q0 153 -84.5 216.5t-283.5 63.5q-97 0 -183 -14q-28 -6 -28 -37v-551z" />
<glyph unicode="S" horiz-adv-x="915" d="M88 74l14 47q7 20 27 10q133 -63 299 -63q157 0 233 70.5t76 199.5v24q0 126 -50 182.5t-189 88.5l-117 29q-291 70 -291 315v37q0 159 101 244t286 85q151 0 264 -36q23 -7 17 -31l-8 -41q-5 -21 -31 -12q-109 34 -248 34q-138 0 -210.5 -61.5t-72.5 -181.5v-23 q0 -47 12.5 -84t33 -62t53 -44t64 -30.5t75.5 -22.5l115 -29q170 -42 232.5 -114t62.5 -218v-39q0 -185 -108 -275.5t-298 -90.5q-174 0 -330 65q-14 6 -14 18q0 4 2 9z" />
<glyph unicode="T" horiz-adv-x="978" d="M47 1260v45q0 20 25 20h835q25 0 25 -20v-45q0 -21 -25 -21h-370v-1216q0 -23 -19 -23h-57q-19 0 -19 23v1216h-370q-25 0 -25 21z" />
<glyph unicode="U" horiz-adv-x="1167" d="M143 422v881q0 22 19 22h57q19 0 19 -22v-871q0 -103 16.5 -168.5t58.5 -111.5q81 -93 271 -93q189 0 270 93q42 46 59 111.5t17 168.5v871q0 22 18 22h58q18 0 18 -22v-881q0 -233 -104 -334q-106 -106 -336 -106t-336 106q-105 102 -105 334z" />
<glyph unicode="V" horiz-adv-x="1069" d="M57 1303q-1 5 -1 9q0 13 14 13h67q16 0 21 -16q195 -706 364 -1227h25q178 550 362 1227q5 16 21 16h67q15 0 15 -12q0 -4 -2 -10q-203 -719 -383 -1264q-8 -24 -23.5 -31.5t-42.5 -7.5h-55q-27 0 -41.5 7.5t-22.5 31.5q-200 587 -385 1264z" />
<glyph unicode="W" horiz-adv-x="1609" d="M53 1303q-1 5 -1 9q0 13 14 13h65q18 0 21 -20q46 -282 118.5 -614.5t147.5 -608.5h22q165 641 271 1130q6 30 20 41t47 11h53q32 0 47 -11t21 -41q92 -422 270 -1130h23q75 276 147.5 608.5t118.5 614.5q3 20 21 20h65q9 -1 12 -5q2 -2 2 -6t-2 -11 q-116 -666 -278 -1250q-9 -32 -24 -42.5t-46 -10.5h-51q-32 0 -47.5 12t-24.5 45q-109 410 -270 1127h-20q-156 -692 -271 -1127q-9 -33 -24.5 -45t-46.5 -12h-52q-31 0 -45.5 10.5t-23.5 42.5q-164 594 -279 1250z" />
<glyph unicode="X" horiz-adv-x="1052" d="M57 18l295 633q13 30 13 35q0 11 -13 37l-272 584q-3 6 1 12t13 6h58q13 0 19.5 -5t14.5 -20l252 -538q11 -22 20.5 -29.5t28.5 -7.5h78q19 0 28.5 7.5t20.5 29.5l252 538q12 25 35 25h57q9 0 13.5 -6t1.5 -12l-273 -584q-12 -24 -12 -37q0 -7 12 -35l295 -633q3 -5 3 -9 q0 -9 -17 -9h-70q-14 0 -22 16l-260 578q-13 30 -30.5 39.5t-51.5 9.5h-41q-34 0 -51.5 -9.5t-30.5 -39.5l-260 -578q-8 -16 -23 -16h-69q-17 0 -17 10q0 3 2 8z" />
<glyph unicode="Y" horiz-adv-x="954" d="M57 1303q-2 6 -2 10q0 12 15 12h67q16 0 21 -16q139 -424 311 -734h16q175 314 312 734q5 16 20 16h68q14 0 14 -12q0 -4 -2 -10q-88 -263 -168.5 -443t-204.5 -401v-436q0 -23 -18 -23h-57q-19 0 -19 23v436q-124 221 -204.5 401t-168.5 443z" />
<glyph unicode="Z" horiz-adv-x="968" d="M74 23v20q0 19 6 36.5t12.5 29t22.5 36.5l673 1102h-665q-17 0 -17 19v41q0 18 17 18h735q25 0 25 -25v-20q0 -33 -12 -60t-56 -100l-639 -1042h690q6 0 11.5 -5t5.5 -12v-43q0 -6 -5.5 -12t-11.5 -6h-766q-26 0 -26 23z" />
<glyph unicode="[" horiz-adv-x="499" d="M143 -174v1556q0 15 15 15h295q14 0 14 -15v-55q0 -9 -3 -11.5t-11 -2.5h-211v-1417h211q14 0 14 -15v-55q0 -9 -3 -11.5t-11 -2.5h-295q-15 0 -15 14z" />
<glyph unicode="\" horiz-adv-x="630" d="M53 1393q-3 12 1 16t16 4h57q18 0 23 -18l428 -1428q6 -20 -17 -20h-57q-18 0 -23 18z" />
<glyph unicode="]" horiz-adv-x="499" d="M33 -119q0 15 14 15h211v1417h-211q-8 0 -11 2.5t-3 11.5v55q0 15 14 15h295q14 0 14 -15v-1556q0 -9 -3 -11.5t-11 -2.5h-295q-8 0 -11 2.5t-3 11.5v55z" />
<glyph unicode="^" d="M137 745l307 474q9 14 17.5 18t27.5 4h72q19 0 27.5 -4t17.5 -18l307 -474q11 -17 -6 -28l-49 -23q-18 -13 -31 6l-292 435h-19l-291 -435q-12 -19 -30 -6l-52 23q-17 11 -6 28z" />
<glyph unicode="_" horiz-adv-x="956" d="M41 -131q0 12 12 12h850q12 0 12 -12v-39q0 -12 -12 -12h-850q-12 0 -12 12v39z" />
<glyph unicode="`" horiz-adv-x="569" d="M70 1391l26 53q14 32 45 16l346 -194q18 -10 9 -33l-15 -33q-6 -13 -14.5 -14.5t-30.5 8.5l-340 154q-42 14 -26 43z" />
<glyph unicode="a" horiz-adv-x="927" d="M86 266v25q0 75 16 126t56.5 89t113 56t181.5 18h102q46 0 147 -9v121q0 142 -59 196t-190 54q-117 0 -246 -37q-27 -8 -33 10l-8 37q-3 13 0.5 18.5t15.5 10.5q125 41 281 41q177 0 252.5 -82t75.5 -268v-654q0 -18 -19 -18h-45q-17 0 -20 20l-7 82h-4 q-35 -62 -98.5 -91t-177.5 -29h-41q-161 0 -227 65t-66 219zM176 252q0 -102 45 -146.5t141 -44.5h80q133 0 196.5 60t63.5 184v187q-74 8 -137 8h-129q-141 0 -200.5 -45t-59.5 -152v-51z" />
<glyph unicode="b" horiz-adv-x="997" d="M135 340v1030q0 16 15 16h57q16 0 16 -16v-471h4q84 123 299 123q191 0 280 -113.5t89 -359.5v-96q0 -175 -45.5 -280t-129 -148t-216.5 -43q-197 0 -283 87t-86 271zM223 346q0 -151 70 -217t213 -66q166 0 232.5 89t66.5 317v72q0 216 -69 307.5t-220 91.5 q-154 0 -223.5 -74t-69.5 -219v-301z" />
<glyph unicode="c" horiz-adv-x="831" d="M102 475v70q0 152 26.5 243t84.5 146q91 88 270 88q86 0 159.5 -22.5t121.5 -59.5q10 -7 10 -15q0 -5 -4 -12l-27 -39q-9 -12 -26 0q-101 66 -236 66q-136 0 -202 -63q-55 -54 -70.5 -137t-15.5 -216v-35q0 -131 18.5 -212.5t67.5 -139.5q29 -34 88.5 -54t132.5 -20 q115 0 215 41q12 4 17.5 1t10.5 -15l9 -27q4 -18 1 -22.5t-18 -11.5q-46 -20 -112 -33.5t-123 -13.5q-187 0 -283 90q-115 110 -115 403z" />
<glyph unicode="d" horiz-adv-x="993" d="M102 449v100q0 249 85.5 361t289.5 112q101 0 176 -35.5t113 -95.5h4v479q0 16 14 16h58q16 0 16 -16v-1044q0 -344 -366 -344q-103 0 -173 22t-120.5 75.5t-73.5 144t-23 225.5zM193 465q0 -226 68 -314t228 -88q143 0 212 66.5t69 224.5v281q0 144 -76 224.5t-219 80.5 q-152 0 -217 -89.5t-65 -313.5v-72z" />
<glyph unicode="e" horiz-adv-x="917" d="M102 455v92q0 250 86 362.5t281 112.5q172 0 257 -92t85 -279v-123q0 -48 -18.5 -67t-65.5 -19h-534q4 -216 69 -297.5t225 -81.5q54 0 124.5 13.5t121.5 34.5q21 8 27 -9l12 -32q6 -13 3 -20.5t-19 -14.5q-54 -24 -128.5 -38.5t-140.5 -14.5q-212 0 -298.5 108.5 t-86.5 364.5zM195 528h499q12 0 17 1t8.5 8.5t3.5 23.5v64q0 168 -61 241.5t-193 73.5q-99 0 -156 -35.5t-86.5 -125.5t-31.5 -251z" />
<glyph unicode="f" horiz-adv-x="540" d="M45 934v39q0 11 12 14l129 17v75q0 123 37 193q37 71 110.5 102t162.5 31q78 0 157 -21q15 -4 15 -20v-6l-6 -35q-2 -17 -23 -14q-74 16 -133 16q-113 0 -162 -41q-40 -33 -55 -81t-15 -136v-63h224q16 0 16 -15v-53q0 -14 -16 -14h-224v-906q0 -16 -16 -16h-57 q-15 0 -15 16v906h-129q-12 0 -12 12z" />
<glyph unicode="g" horiz-adv-x="944" d="M70 -264l16 39q8 16 29 6q157 -82 344 -82q147 0 220 53.5t73 181.5v21q0 175 -193 272q-52 -8 -110 -8q-188 0 -270.5 87t-82.5 284v65q0 202 86 284.5t267 82.5q29 0 83 -4q36 70 86 103.5t127 33.5h46q16 0 16 -14v-56q0 -16 -16 -16h-58q-43 0 -69 -17t-43 -55 q64 -19 103 -55.5t60 -106.5t21 -180v-65q0 -135 -35.5 -215t-107.5 -119q91 -57 135.5 -125t44.5 -168v-35q0 -88 -28.5 -149.5t-82.5 -96t-122.5 -50t-157.5 -15.5q-99 0 -201 25.5t-170 64.5q-12 7 -12 19q0 4 2 10zM186 596q0 -163 62.5 -229t200.5 -66q73 0 120 12 t81.5 45t49.5 91.5t15 150.5v47q0 87 -16 145t-51.5 90t-82 45t-116.5 13t-116 -12.5t-81 -44.5t-50.5 -90t-15.5 -146v-51z" />
<glyph unicode="h" horiz-adv-x="1019" d="M150 16v1354q0 16 14 16h57q17 0 17 -16v-485q36 63 112 101t178 38q193 0 274 -97.5t81 -301.5v-609q0 -16 -17 -16h-57q-14 0 -14 16v600q0 171 -63.5 247.5t-215.5 76.5q-132 0 -205 -74t-73 -221v-629q0 -16 -17 -16h-57q-14 0 -14 16z" />
<glyph unicode="i" horiz-adv-x="448" d="M147 1266v12q0 78 74 78h8q68 0 68 -78v-12q0 -80 -68 -80h-8q-40 0 -57 18.5t-17 61.5zM180 16v971q0 17 15 17h57q16 0 16 -17v-971q0 -16 -16 -16h-57q-15 0 -15 16z" />
<glyph unicode="j" horiz-adv-x="450" d="M-121 -299q0 16 17 16h63q135 0 184 82q37 62 37 195v993q0 17 15 17h57q16 0 16 -17v-985q0 -139 -35 -215q-70 -152 -264 -152h-71q-19 0 -19 19v47zM147 1266v12q0 78 74 78h8q68 0 68 -78v-12q0 -80 -68 -80h-8q-40 0 -57 18.5t-17 61.5z" />
<glyph unicode="k" horiz-adv-x="827" d="M150 16v1354q0 16 14 16h57q17 0 17 -16v-795h108q24 0 39.5 9t32.5 34l270 373q8 13 27 13h57q17 0 17 -10q0 -5 -5 -13l-317 -434q-9 -11 0 -25l315 -499q5 -8 5 -13q0 -10 -17 -10h-55q-18 0 -29 16l-276 441q-12 21 -25 29t-35 8h-112v-478q0 -16 -17 -16h-57 q-14 0 -14 16z" />
<glyph unicode="l" horiz-adv-x="479" d="M156 217v1153q0 16 14 16h57q17 0 17 -16v-1143q0 -87 22 -116t82 -29h53q15 0 15 -14v-52q0 -16 -17 -16h-47q-109 0 -152.5 47t-43.5 170z" />
<glyph unicode="m" horiz-adv-x="1642" d="M150 16v973q0 15 14 15h45q18 0 18 -17l6 -98h5q36 63 108.5 98t173.5 35q117 0 189 -35t116 -113h4q46 65 128.5 106.5t199.5 41.5q224 0 303 -143q45 -81 45 -254v-609q0 -16 -16 -16h-57q-15 0 -15 16v600q0 119 -24 185t-78 98q-67 41 -168 41q-184 0 -289 -137 q14 -77 14 -178v-609q0 -16 -16 -16h-57q-15 0 -15 16v615q0 168 -64.5 238.5t-207.5 70.5q-133 0 -203.5 -73.5t-70.5 -213.5v-637q0 -16 -17 -16h-57q-14 0 -14 16z" />
<glyph unicode="n" horiz-adv-x="1019" d="M150 16v973q0 15 14 15h45q18 0 18 -17l6 -94h3q79 129 292 129q231 0 310 -143q45 -81 45 -254v-609q0 -16 -17 -16h-57q-14 0 -14 16v600q0 119 -24.5 184.5t-78.5 98.5q-63 38 -164 41h-11q-133 0 -205 -67q-74 -70 -74 -228v-629q0 -16 -17 -16h-57q-14 0 -14 16z " />
<glyph unicode="o" horiz-adv-x="962" d="M102 457v90q0 141 24 238t87 153q98 84 268 84q178 0 269 -84q62 -56 86 -154t24 -237v-90q0 -139 -24 -237t-86 -154q-91 -84 -269 -84q-177 0 -268 84q-111 101 -111 391zM193 481q0 -127 12 -197.5t43 -115.5q70 -105 233 -105t234 105q31 45 43 115.5t12 197.5v41 q0 127 -12 198t-43 116q-70 104 -234 104q-163 0 -233 -104q-31 -45 -43 -116t-12 -198v-41z" />
<glyph unicode="p" horiz-adv-x="1013" d="M150 -348v1337q0 15 14 15h45q18 0 18 -17l6 -104h5q41 69 114.5 104t192.5 35q107 0 179 -28.5t112.5 -88.5t57.5 -140t17 -196v-118q0 -117 -16.5 -200t-56.5 -145.5t-110.5 -93t-174.5 -30.5q-128 0 -197.5 33.5t-111.5 99.5h-6v-463q0 -17 -17 -17h-57q-14 0 -14 17z M238 346q0 -134 82 -208.5t225 -74.5q103 0 160 32t86.5 119.5t29.5 250.5v86q0 100 -11.5 167t-42 120t-86.5 77.5t-142 24.5q-301 0 -301 -283v-311z" />
<glyph unicode="q" horiz-adv-x="1015" d="M102 432v107q0 183 41 289t122 150t218 44q209 0 291 -127h4l8 88q0 10 6.5 15.5t14.5 5.5h39q12 0 16 -3t4 -16v-1333q0 -17 -16 -17h-57q-15 0 -15 17v457h-6q-98 -127 -289 -127q-200 0 -290.5 106.5t-90.5 343.5zM193 442q0 -205 67 -292t234 -87q129 0 206.5 70.5 t77.5 196.5v323q0 140 -79 213.5t-220 73.5q-104 0 -165 -38.5t-91 -130.5t-30 -253v-76z" />
<glyph unicode="r" horiz-adv-x="581" d="M150 16v973q0 15 14 15h41q19 0 22 -17l13 -100h2q63 117 223 117h63q17 0 17 -17v-47q0 -18 -19 -18h-61q-131 0 -182 -82q-45 -72 -45 -181v-643q0 -16 -17 -16h-57q-14 0 -14 16z" />
<glyph unicode="s" horiz-adv-x="782" d="M84 43q-1 2 -2 6q0 4 2 10l10 35q5 19 31 10q130 -45 250 -45q73 0 120.5 12.5t72.5 40.5t34.5 62.5t9.5 87.5v10q0 108 -35.5 146.5t-156.5 60.5l-92 17q-135 24 -187.5 86t-52.5 172v8q0 260 318 260q105 0 219 -28q21 -5 16 -27l-8 -33q-3 -10 -9.5 -12.5t-19.5 0.5 q-112 22 -205 22q-117 0 -170 -44.5t-53 -135.5v-8q0 -89 45 -128.5t164 -60.5l92 -16q122 -22 172.5 -80.5t50.5 -185.5v-19q0 -153 -79.5 -218.5t-253.5 -65.5q-71 0 -147 15.5t-124 35.5q-10 5 -12 10z" />
<glyph unicode="t" horiz-adv-x="602" d="M18 934v39q0 11 13 14l143 17v239q0 17 16 17h56q16 0 16 -17v-239h250q16 0 16 -15v-53q0 -14 -16 -14h-250v-596q0 -82 7 -123.5t32 -71.5q47 -53 174 -53h62q16 0 16 -17v-45q0 -16 -16 -16h-74q-171 0 -236 82q-33 42 -43 91t-10 142v607h-143q-13 0 -13 12z" />
<glyph unicode="u" horiz-adv-x="987" d="M139 301v686q0 17 17 17h55q16 0 16 -17v-674q0 -146 56 -196q36 -31 82.5 -44.5t128.5 -13.5t128.5 13.5t82.5 44.5q29 26 42 71.5t13 124.5v674q0 17 16 17h55q17 0 17 -17v-686q0 -89 -18.5 -147t-61.5 -97q-81 -75 -274 -75q-194 0 -275 75q-43 39 -61.5 97 t-18.5 147z" />
<glyph unicode="v" horiz-adv-x="862" d="M49 983q-1 5 -1 9q0 12 15 12h52q19 0 24 -17q126 -511 281 -901h22q155 390 281 901q5 17 25 17h51q15 0 15 -12q0 -4 -1 -9q-119 -489 -295 -930q-11 -28 -26 -40.5t-41 -12.5h-39q-27 0 -42 12.5t-26 40.5q-176 441 -295 930z" />
<glyph unicode="w" horiz-adv-x="1343" d="M49 983q-1 6 -1 10q0 5 2 7q4 4 20 4h49q18 0 22 -17q73 -419 211 -901h23q103 374 215 825q6 25 20.5 34t46.5 9h29q32 0 47 -9t21 -34q112 -451 215 -825h22q143 500 213 901q3 17 21 17h49q20 0 20 -16q0 -210 -223 -929q-10 -34 -27 -46.5t-49 -12.5h-30 q-35 0 -50.5 13.5t-25.5 45.5q-102 344 -207 797h-20q-105 -453 -207 -797q-10 -32 -25.5 -45.5t-50.5 -13.5h-31q-32 0 -49 12.5t-27 46.5q-123 396 -223 924z" />
<glyph unicode="x" horiz-adv-x="835" d="M53 18l232 471q15 27 2 50l-217 444q-10 21 10 21h57q17 0 25 -13l188 -401q15 -31 43 -31h45q28 0 43 31l195 401q8 13 24 13h58q20 0 10 -21l-223 -444q-13 -23 2 -50l235 -469q3 -7 3 -11q0 -9 -13 -9h-61q-20 0 -25 12l-209 437q-9 18 -17.5 23t-29.5 5h-31 q-22 0 -30 -4.5t-15 -23.5l-202 -437q-5 -12 -25 -12h-64q-13 0 -13 8q0 4 3 10z" />
<glyph unicode="y" horiz-adv-x="831" d="M49 983q-1 5 -1 9q0 12 15 12h54q19 0 22 -19q79 -358 203 -747q26 -79 45.5 -104t63.5 -25h10q149 391 233 878q3 17 21 17h53q15 0 15 -12q0 -4 -1 -9q-75 -344 -143 -585t-128 -398.5t-155 -368.5q-6 -14 -17 -14q-4 0 -9 2l-47 21q-17 8 -9 24q89 180 158 363 q-55 2 -87 27.5t-58 92.5q-115 313 -238 836z" />
<glyph unicode="z" horiz-adv-x="790" d="M82 14v25q0 28 35 84l497 799h-497q-17 0 -17 14v53q0 15 17 15h592q16 0 16 -15v-20q0 -31 -37 -92l-498 -795h504q15 0 15 -14v-54q0 -14 -15 -14h-596q-16 0 -16 14z" />
<glyph unicode="{" horiz-adv-x="569" d="M102 580v51q0 17 15 20q93 22 130.5 67.5t37.5 143.5v348q0 99 45 143t135 44h74q14 0 14 -15v-55q0 -9 -3 -11.5t-11 -2.5h-66q-56 0 -76 -26.5t-20 -115.5v-292q0 -126 -43.5 -191t-143.5 -80v-6q101 -28 144 -93t43 -192v-280q0 -89 19.5 -115t76.5 -26h66 q14 0 14 -15v-55q0 -9 -3 -11.5t-11 -2.5h-74q-90 0 -135 43.5t-45 142.5v330q0 106 -38 157.5t-130 73.5q-15 3 -15 21z" />
<glyph unicode="|" horiz-adv-x="370" d="M143 -29v1428q0 18 17 18h51q16 0 16 -18v-1428q0 -18 -16 -18h-51q-17 0 -17 18z" />
<glyph unicode="}" horiz-adv-x="569" d="M16 -119q0 15 15 15h65q57 0 77 26t20 115v280q0 127 42.5 192t143.5 93v6q-100 15 -143 79.5t-43 191.5v292q0 89 -20 115.5t-77 26.5h-65q-15 0 -15 14v55q0 15 15 15h73q90 0 135.5 -44t45.5 -143v-348q0 -98 37.5 -143.5t130.5 -67.5q14 -2 14 -20v-51q0 -19 -14 -21 q-92 -22 -130 -73.5t-38 -157.5v-330q0 -99 -45 -142.5t-136 -43.5h-73q-15 0 -15 14v55z" />
<glyph unicode="~" d="M51 592q51 123 114.5 177t145.5 54q78 0 172 -65l117 -80q80 -53 135 -53q103 0 185 166q8 16 26 4l41 -25q11 -7 13 -14t-3 -17q-35 -77 -82 -127.5t-90 -70t-86 -19.5q-57 0 -96.5 15t-99.5 55l-109 74q-76 55 -125 55q-46 0 -86 -36t-84 -136q-6 -13 -15 -14t-22 6 l-43 20q-16 11 -8 31z" />
<glyph unicode="&#xa1;" horiz-adv-x="442" d="M143 909v41q0 72 66 72h24q66 0 66 -72v-41q0 -73 -66 -73h-24q-66 0 -66 73zM172 -293l8 989q0 21 17 21h47q16 0 16 -21l8 -989q0 -20 -20 -20h-55q-21 0 -21 20z" />
<glyph unicode="&#xa2;" d="M184 475v70q0 149 26.5 238.5t84.5 142.5q84 78 235 84v204q0 19 19 19h41q20 0 20 -19v-204q147 -12 240 -78q18 -13 8 -29l-22 -37q-9 -15 -29 -2q-85 53 -197 66v-858q95 3 189 41q12 5 18 1.5t10 -16.5l9 -26q4 -15 0.5 -21t-17.5 -12q-88 -40 -209 -47v-191 q0 -18 -20 -18h-41q-19 0 -19 18v193q-148 9 -231 86q-115 110 -115 395zM274 489q0 -128 18.5 -208t67.5 -136q49 -58 170 -71v856q-109 -5 -170 -60q-55 -54 -70.5 -134.5t-15.5 -211.5v-35z" />
<glyph unicode="&#xa3;" d="M133 23v16q0 18 5.5 26.5t29.5 28.5q79 66 114 155t35 224v178h-114q-21 0 -21 17v32q0 20 21 23l114 18v236q0 192 84 276q90 90 267 90q149 0 250 -38q21 -8 16 -27l-12 -39q-6 -19 -31 -12q-116 33 -217 33q-151 0 -205 -68q-53 -67 -53 -238v-215h383q18 0 18 -16 v-55q0 -17 -18 -17h-385v-162q0 -137 -30.5 -233t-104.5 -162v-6h636q23 0 23 -22v-41q0 -25 -23 -25h-759q-23 0 -23 23z" />
<glyph unicode="&#xa4;" d="M78 172q-16 16 0 31l155 153q-71 93 -71 217q0 125 71 218l-155 153q-16 16 0 31l35 35q16 16 32 0l152 -150q98 76 231 76q128 0 224 -74l151 148q17 16 33 0l35 -35q15 -15 0 -31l-154 -149q76 -103 76 -222q0 -118 -76 -221l154 -149q15 -15 0 -31l-35 -35 q-16 -17 -33 0l-151 148q-96 -74 -224 -74q-133 0 -231 76l-152 -150q-16 -16 -32 0zM260 573q0 -119 78 -197.5t190 -78.5q110 0 188.5 79t78.5 197t-78.5 197.5t-188.5 79.5q-112 0 -190 -79t-78 -198z" />
<glyph unicode="&#xa5;" d="M104 1303q-7 22 13 22h67q16 0 21 -16q144 -439 313 -764h10q183 357 316 764q5 16 20 16h68q19 0 12 -22q-139 -414 -326 -758h224q14 0 14 -13v-61q0 -12 -14 -12h-271v-121h271q14 0 14 -12v-62q0 -12 -14 -12h-271v-229q0 -23 -18 -23h-57q-19 0 -19 23v229h-274 q-15 0 -15 12v62q0 12 15 12h274v121h-274q-15 0 -15 12v61q0 13 15 13h225q-182 335 -324 758z" />
<glyph unicode="&#xa6;" horiz-adv-x="370" d="M143 -29v484q0 18 17 18h51q16 0 16 -18v-484q0 -18 -16 -18h-51q-17 0 -17 18zM143 913v486q0 18 17 18h51q16 0 16 -18v-486q0 -18 -16 -18h-51q-17 0 -17 18z" />
<glyph unicode="&#xa7;" horiz-adv-x="880" d="M139 674v20q0 72 39 125t109 76q-146 44 -146 209v18q0 62 25.5 111t69.5 76q75 47 213 47q105 0 208 -31q20 -7 17 -27l-8 -34q-5 -21 -29 -13q-89 27 -191 27t-151 -27q-66 -37 -66 -131v-12q0 -71 42.5 -108.5t144.5 -57.5l112 -22q116 -23 163.5 -74t47.5 -152v-18 q0 -67 -37 -121.5t-104 -81.5q73 -23 106 -75t33 -144v-18q0 -71 -23.5 -121.5t-68 -79t-100.5 -41t-129 -12.5q-65 0 -137.5 13.5t-122.5 33.5q-11 5 -14.5 10t-0.5 16l11 39q4 13 11.5 15t20.5 -3q114 -43 232 -43q130 0 184 46q49 38 49 124v13q0 80 -34 116.5t-142 57.5 l-115 22q-124 24 -171.5 76.5t-47.5 155.5zM227 680q0 -74 31.5 -107t130.5 -53l121 -24q141 55 141 180v12q0 71 -34 104t-136 54l-104 20q-74 -12 -112 -57t-38 -117v-12z" />
<glyph unicode="&#xa8;" horiz-adv-x="663" d="M86 1296v43q0 38 15.5 52t54.5 14h20q40 0 56 -14t16 -52v-43q0 -36 -16 -49.5t-56 -13.5h-20q-40 0 -55 13.5t-15 49.5zM416 1296v43q0 38 15 52t54 14h21q40 0 56 -14t16 -52v-43q0 -36 -16 -49.5t-56 -13.5h-21q-40 0 -54.5 13t-14.5 50z" />
<glyph unicode="&#xa9;" horiz-adv-x="1630" d="M82 713q0 170 57 311t156.5 234.5t233 144.5t286.5 51t286.5 -51t233 -144.5t156.5 -234.5t57 -311q0 -137 -37 -255.5t-104 -207t-158 -152t-201.5 -95.5t-232.5 -32t-232.5 32t-201.5 95.5t-158 152t-104 207t-37 255.5zM176 713q0 -149 49 -272.5t134.5 -206t203 -128 t252.5 -45.5t252.5 45.5t203 128t134.5 206t49 272.5q0 198 -84.5 347.5t-228.5 226.5t-326 77t-326 -77t-228.5 -226.5t-84.5 -347.5zM502 713v24q0 250 106 359q81 84 234 84q104 0 211 -52q18 -9 8 -30l-12 -29q-8 -19 -25 -10q-90 41 -178 41q-137 0 -194.5 -86 t-57.5 -285q0 -201 56 -290t192 -89q88 0 186 43q19 8 25 -10l10 -37q6 -19 -12 -27q-104 -49 -213 -49q-155 0 -236 84q-100 103 -100 359z" />
<glyph unicode="&#xaa;" horiz-adv-x="608" d="M74 784v21q0 89 54 130.5t179 41.5h41q42 0 92 -4v61q0 66 -32 93.5t-105 27.5q-76 0 -160 -25q-17 -5 -20 11l-6 37q-3 13 10 18q85 29 186 29q113 0 161 -46t48 -155v-389q0 -14 -14 -14h-37q-15 0 -18 14l-7 51h-4q-39 -76 -151 -76h-39q-90 0 -134 40t-44 134z M160 774q0 -96 96 -96h47q137 0 137 117v110q-32 4 -69 4h-68q-81 0 -112 -23t-31 -79v-33z" />
<glyph unicode="&#xab;" horiz-adv-x="915" d="M92 457v35q0 14 10 24l279 234q14 11 25 0l32 -33q12 -11 -2 -25l-233 -217l233 -221q14 -14 2 -25l-32 -32q-11 -11 -25 0l-279 235q-10 10 -10 25zM451 457v35q0 14 10 24l278 234q14 11 25 0l33 -33q11 -11 -2 -25l-234 -217l234 -221q13 -14 2 -25l-33 -32 q-11 -11 -25 0l-278 235q-10 10 -10 25z" />
<glyph unicode="&#xac;" d="M109 504v61q0 15 12 15h805q12 0 12 -13v-463q0 -12 -12 -12h-60q-14 0 -14 12v388h-731q-12 0 -12 12z" />
<glyph unicode="&#xad;" horiz-adv-x="563" d="M72 504v61q0 15 14 15h391q15 0 15 -15v-61q0 -15 -15 -15h-391q-14 0 -14 15z" />
<glyph unicode="&#xae;" horiz-adv-x="1630" d="M82 713q0 170 57 311t156.5 234.5t233 144.5t286.5 51t286.5 -51t233 -144.5t156.5 -234.5t57 -311q0 -137 -37 -255.5t-104 -207t-158 -152t-201.5 -95.5t-232.5 -32t-232.5 32t-201.5 95.5t-158 152t-104 207t-37 255.5zM176 713q0 -149 49 -272.5t134.5 -206t203 -128 t252.5 -45.5t252.5 45.5t203 128t134.5 206t49 272.5q0 198 -84.5 347.5t-228.5 226.5t-326 77t-326 -77t-228.5 -226.5t-84.5 -347.5zM559 303v807q0 21 7 31t30 14q78 16 188 16q155 0 228 -67q67 -64 67 -189v-12q0 -119 -63 -182q-43 -46 -121 -64l178 -348 q12 -24 -14 -24h-43q-17 0 -23.5 3.5t-13.5 18.5l-174 344h-160v-348q0 -18 -20 -18h-45q-21 0 -21 18zM645 727h137q114 0 164 47q45 45 45 135v4q0 95 -48 137t-157 42q-66 0 -118 -9q-15 -3 -19 -8t-4 -22v-326z" />
<glyph unicode="&#xaf;" horiz-adv-x="657" d="M72 1296v43q0 25 22 25h469q23 0 23 -25v-43q0 -22 -23 -22h-469q-22 0 -22 22z" />
<glyph unicode="&#xb0;" horiz-adv-x="602" d="M70 1229q0 97 64 161t167 64t167 -64t64 -161t-64.5 -162.5t-166.5 -65.5t-166.5 65.5t-64.5 162.5zM158 1229q0 -66 40 -109t103 -43t103 43t40 109t-40 107.5t-103 41.5t-103 -41.5t-40 -107.5z" />
<glyph unicode="&#xb1;" d="M109 12v62q0 14 12 14h805q12 0 12 -12v-64q0 -12 -12 -12h-805q-12 0 -12 12zM109 698v66q0 10 12 10h358v356q0 15 15 15h61q12 0 12 -15v-356h359q12 0 12 -12v-64q0 -12 -12 -12h-359v-358q0 -15 -12 -15h-61q-15 0 -15 15v358h-358q-12 0 -12 12z" />
<glyph unicode="&#xb2;" horiz-adv-x="618" d="M84 948v37q0 99 29.5 156.5t103.5 93.5l109 53q55 28 75.5 56.5t20.5 78.5v13q0 62 -30.5 83t-102.5 21q-78 0 -152 -24q-17 -7 -20 8l-8 39q-3 15 10 20q89 29 178 29q108 0 161.5 -39t53.5 -127v-12q0 -76 -27.5 -120.5t-101.5 -80.5l-104 -51q-63 -30 -85 -66 t-22 -100v-15h336q12 0 12 -12v-45q0 -12 -12 -12h-408q-16 0 -16 16z" />
<glyph unicode="&#xb3;" horiz-adv-x="618" d="M100 961l9 43q4 14 16 8q75 -27 147 -27q156 0 156 113v14q0 64 -38.5 93.5t-125.5 29.5h-41q-12 0 -12 14v41q0 17 14 17h39q82 0 114 28.5t32 91.5v15q0 52 -28 75t-93 23q-67 0 -139 -22q-18 -7 -21 8l-8 37q-3 15 10 20q85 29 174 29q93 0 144 -41t51 -123v-16 q0 -61 -29 -102.5t-80 -55.5v-4q55 -5 91 -45.5t36 -104.5v-20q0 -90 -63 -138.5t-166 -48.5q-101 0 -183 31q-9 3 -6 17z" />
<glyph unicode="&#xb4;" horiz-adv-x="569" d="M66 1233q-9 23 8 33l346 194q31 16 45 -16l27 -53q16 -28 -27 -43l-340 -154q-22 -10 -30.5 -8.5t-14.5 14.5z" />
<glyph unicode="&#xb6;" horiz-adv-x="1140" d="M98 1061q0 155 107.5 260.5t279.5 105.5h545q15 0 21 -5.5t6 -18.5v-39q0 -25 -27 -25h-158v-1564q0 -13 -5 -18t-17 -5h-51q-14 0 -19.5 5t-5.5 18v1564h-211v-1564q0 -13 -5 -18t-17 -5h-52q-14 0 -19 5t-5 18v921q-71 0 -136 24t-117 68.5t-83 115.5t-31 157z" />
<glyph unicode="&#xb7;" horiz-adv-x="378" d="M109 571v56q0 67 69 67h21q40 0 55.5 -16t15.5 -51v-56q0 -35 -15.5 -51t-55.5 -16h-21q-69 0 -69 67z" />
<glyph unicode="&#xb8;" horiz-adv-x="458" d="M55 -426l8 45q3 16 21 10q59 -16 129 -16q61 0 90 22t29 76q0 76 -80 76q-35 0 -80 -10q-15 -3 -22 2l-15 8q-10 8 -8 20l25 179q2 12 14 12h57q16 0 13 -14l-17 -127q36 8 70 8q61 0 98 -37t37 -111q0 -184 -215 -184q-76 0 -141 21q-16 5 -13 20z" />
<glyph unicode="&#xb9;" horiz-adv-x="618" d="M74 1460q-8 11 6 21l121 86q23 17 34.5 21.5t30.5 4.5h62q15 0 20.5 -4.5t5.5 -17.5v-570h170q13 0 13 -12v-45q0 -12 -13 -12h-432q-12 0 -12 12v45q0 12 12 12h172v517h-6l-135 -99q-12 -10 -21 2z" />
<glyph unicode="&#xba;" horiz-adv-x="641" d="M74 893v49q0 157 57.5 220t187.5 63t189 -63t59 -220v-49q0 -158 -59 -220.5t-189 -62.5t-187.5 62.5t-57.5 220.5zM160 909q0 -135 34.5 -183t124.5 -48q91 0 126.5 48t35.5 183v13q0 135 -35.5 185t-126.5 50q-89 0 -124 -50t-35 -185v-13z" />
<glyph unicode="&#xbb;" horiz-adv-x="923" d="M119 229q-11 11 2 25l233 221l-233 217q-13 14 -2 25l33 33q11 11 24 0l279 -234q10 -10 10 -24v-35q0 -15 -10 -25l-279 -235q-13 -11 -24 0zM485 229q-11 11 2 25l234 221l-234 217q-13 14 -2 25l33 33q11 11 25 0l278 -234q10 -10 10 -24v-35q0 -15 -10 -25l-278 -235 q-14 -11 -25 0z" />
<glyph unicode="&#xbc;" horiz-adv-x="1564" d="M117 1192q-8 11 6 20l121 86q23 17 34.5 22t30.5 5h62q15 0 20.5 -4.5t5.5 -17.5v-570h170q13 0 13 -12v-45q0 -12 -13 -12h-432q-12 0 -12 12v45q0 12 12 12h172v516h-6l-135 -98q-12 -10 -21 2zM336 -14l770 1343q7 14 22 14h62q17 0 8 -18l-770 -1343q-8 -15 -22 -15 h-62q-21 0 -8 19zM860 193v47q0 10 17 34l258 371q8 12 13.5 15.5t18.5 3.5h90q17 0 17 -17v-397h78q12 0 12 -10v-50q0 -10 -12 -10h-78v-166q0 -14 -12 -14h-62q-16 0 -16 14v166h-307q-17 0 -17 13zM948 250h236v332h-8z" />
<glyph unicode="&#xbd;" horiz-adv-x="1564" d="M117 1192q-8 11 6 20l121 86q23 17 34.5 22t30.5 5h62q15 0 20.5 -4.5t5.5 -17.5v-570h170q13 0 13 -12v-45q0 -12 -13 -12h-432q-12 0 -12 12v45q0 12 12 12h172v516h-6l-135 -98q-12 -10 -21 2zM336 -14l770 1343q7 14 22 14h62q17 0 8 -18l-770 -1343q-8 -15 -22 -15 h-62q-21 0 -8 19zM989 16v37q0 99 29.5 156.5t103.5 93.5l109 53q55 28 75.5 57t20.5 79v12q0 62 -30.5 83t-102.5 21q-78 0 -152 -24q-17 -7 -20 8l-8 39q-2 15 10 20q89 29 178 29q108 0 161.5 -39t53.5 -127v-12q0 -76 -27.5 -120.5t-101.5 -80.5l-104 -51 q-63 -30 -85 -66t-22 -100v-14h336q12 0 12 -13v-45q0 -12 -12 -12h-407q-17 0 -17 16z" />
<glyph unicode="&#xbe;" horiz-adv-x="1564" d="M168 692l8 43q4 15 17 8q72 -26 147 -26q156 0 156 112v15q0 64 -38.5 93.5t-125.5 29.5h-41q-12 0 -12 14v41q0 16 14 16h39q82 0 113.5 29t31.5 92v15q0 52 -28 75t-93 23q-64 0 -139 -23q-17 -7 -20 8l-9 37q-3 16 11 21q82 28 174 28q93 0 143.5 -40.5t50.5 -122.5 v-17q0 -61 -28.5 -102t-79.5 -55v-5q56 -5 91.5 -45t35.5 -104v-21q0 -90 -63.5 -138t-166.5 -48q-100 0 -182 31q-9 3 -6 16zM336 -14l770 1343q7 14 22 14h62q17 0 8 -18l-770 -1343q-8 -15 -22 -15h-62q-21 0 -8 19zM860 193v47q0 10 17 34l258 371q8 12 13.5 15.5 t18.5 3.5h90q17 0 17 -17v-397h78q12 0 12 -10v-50q0 -10 -12 -10h-78v-166q0 -14 -12 -14h-62q-16 0 -16 14v166h-307q-17 0 -17 13zM948 250h236v332h-8z" />
<glyph unicode="&#xbf;" horiz-adv-x="907" d="M102 4q0 97 46.5 174t150.5 148l102 69q88 60 112 106.5t24 153.5v58q0 22 18 22h57q19 0 19 -22v-58q0 -126 -30 -188.5t-128 -128.5l-100 -68q-69 -47 -102.5 -79t-51.5 -77t-18 -112v-14q0 -248 293 -248q152 0 290 51q18 6 21 -12l10 -43q3 -18 -10 -23 q-146 -53 -320 -53q-196 0 -289.5 83.5t-93.5 236.5v24zM504 922v28q0 72 65 72h25q65 0 65 -72v-28q0 -74 -65 -74h-25q-65 0 -65 74z" />
<glyph unicode="&#xc0;" d="M57 23q199 789 375 1263q9 25 19.5 32t35.5 7h72q25 0 36.5 -7t20.5 -32q170 -467 375 -1263q5 -23 -12 -23h-68q-17 0 -20 16q-58 236 -117 441h-500q-53 -183 -116 -441q-3 -16 -21 -16h-67q-18 0 -13 23zM233 1618l21 55q11 32 43 21l367 -152q18 -8 12 -31l-12 -34 q-5 -14 -12 -17t-31 4l-357 113q-43 12 -31 41zM297 543h455q-135 469 -213 700h-29q-78 -231 -213 -700z" />
<glyph unicode="&#xc1;" d="M57 23q199 789 375 1263q9 25 19.5 32t35.5 7h72q25 0 36.5 -7t20.5 -32q170 -467 375 -1263q5 -23 -12 -23h-68q-17 0 -20 16q-58 236 -117 441h-500q-53 -183 -116 -441q-3 -16 -21 -16h-67q-18 0 -13 23zM297 543h455q-135 469 -213 700h-29q-78 -231 -213 -700z M381 1511q-6 23 12 31l367 152q32 11 43 -21l20 -55q12 -29 -30 -41l-357 -113q-24 -7 -31 -4t-12 17z" />
<glyph unicode="&#xc2;" d="M57 23q199 789 375 1263q9 25 19.5 32t35.5 7h72q25 0 36.5 -7t20.5 -32q170 -467 375 -1263q5 -23 -12 -23h-68q-17 0 -20 16q-58 236 -117 441h-500q-53 -183 -116 -441q-3 -16 -21 -16h-67q-18 0 -13 23zM240 1495q-16 13 2 31l227 250q12 14 31 14h49q19 0 31 -14 l227 -250q17 -16 2 -31l-39 -33q-16 -13 -35 6l-205 211h-12l-205 -211q-20 -20 -34 -6zM297 543h455q-135 469 -213 700h-29q-78 -231 -213 -700z" />
<glyph unicode="&#xc3;" d="M57 23q199 789 375 1263q9 25 19.5 32t35.5 7h72q25 0 36.5 -7t20.5 -32q170 -467 375 -1263q5 -23 -12 -23h-68q-17 0 -20 16q-58 236 -117 441h-500q-53 -183 -116 -441q-3 -16 -21 -16h-67q-18 0 -13 23zM207 1561q35 73 86.5 111t112.5 38q58 0 120 -47l56 -43 q45 -31 75 -31q29 0 61.5 30t59.5 75q8 11 19 6l43 -29q16 -9 6 -26q-37 -68 -91 -111t-110 -43q-63 0 -119 45l-53 41q-47 35 -80 35q-60 0 -117 -103q-9 -14 -24 -4l-41 27q-16 9 -4 29zM297 543h455q-135 469 -213 700h-29q-78 -231 -213 -700z" />
<glyph unicode="&#xc4;" d="M57 23q199 789 375 1263q9 25 19.5 32t35.5 7h72q25 0 36.5 -7t20.5 -32q170 -467 375 -1263q5 -23 -12 -23h-68q-17 0 -20 16q-58 236 -117 441h-500q-53 -183 -116 -441q-3 -16 -21 -16h-67q-18 0 -13 23zM279 1577v43q0 38 15 52t54 14h21q40 0 55.5 -14t15.5 -52v-43 q0 -37 -15.5 -50.5t-55.5 -13.5h-21q-40 0 -54.5 13.5t-14.5 50.5zM297 543h455q-135 469 -213 700h-29q-78 -231 -213 -700zM608 1577v43q0 38 15.5 52t54.5 14h20q40 0 56 -14t16 -52v-43q0 -36 -16 -50t-56 -14h-20q-40 0 -55 13.5t-15 50.5z" />
<glyph unicode="&#xc5;" d="M57 23q199 789 375 1263q9 25 19.5 32t35.5 7h72q25 0 36.5 -7t20.5 -32q170 -467 375 -1263q5 -23 -12 -23h-68q-17 0 -20 16q-58 236 -117 441h-500q-53 -183 -116 -441q-3 -16 -21 -16h-67q-18 0 -13 23zM297 543h455q-135 469 -213 700h-29q-78 -231 -213 -700z M338 1630q0 86 53.5 134t132.5 48q80 0 133.5 -48t53.5 -134t-53.5 -134t-133.5 -48q-79 0 -132.5 48t-53.5 134zM426 1630q0 -48 27.5 -74t70.5 -26q44 0 71.5 26t27.5 74t-27.5 74.5t-71.5 26.5q-43 0 -70.5 -26.5t-27.5 -74.5z" />
<glyph unicode="&#xc6;" horiz-adv-x="1579" d="M59 27q358 750 619 1233q20 37 40 51t62 14h703q22 0 22 -22v-41q0 -23 -22 -23h-604v-510h522q22 0 22 -22v-41q0 -23 -22 -23h-522v-434q0 -70 25.5 -96.5t99.5 -26.5h469q22 0 22 -23v-40q0 -23 -22 -23h-480q-109 0 -160 46.5t-51 150.5v260h-417l-201 -432 q-9 -25 -27 -25h-65q-26 0 -13 27zM410 543h372v696h-16q-251 -475 -356 -696z" />
<glyph unicode="&#xc7;" horiz-adv-x="1007" d="M115 604v119q0 223 31.5 341.5t117.5 190.5q103 88 309 88q198 0 340 -83q18 -10 9 -31l-17 -37q-9 -18 -31 -6q-145 71 -299 71q-86 0 -147 -17t-106 -62q-63 -63 -86 -174t-23 -308v-65q0 -215 18 -308t76 -163q41 -50 106 -71t179 -21q160 0 297 57q20 8 26 -10 l11 -49q6 -17 -13 -25q-136 -56 -317 -59l-16 -125q36 8 69 8q61 0 98 -37t37 -111q0 -184 -215 -184q-76 0 -141 21q-15 5 -12 20l8 45q3 16 20 10q59 -16 129 -16q61 0 90 22t29 76q0 76 -80 76q-35 0 -80 -10q-15 -3 -22 2l-14 8q-11 8 -9 20l25 177q-210 14 -299 131 q-57 71 -77.5 172t-20.5 317z" />
<glyph unicode="&#xc8;" horiz-adv-x="931" d="M129 604v117q0 226 12 407q6 100 47 144q50 53 172 53h476q22 0 22 -22v-41q0 -23 -22 -23h-469q-72 0 -97 -25t-30 -100q-13 -187 -13 -385h500q23 0 23 -22v-41q0 -23 -23 -23h-500q0 -192 13 -432q5 -75 30 -100t97 -25h469q22 0 22 -23v-40q0 -23 -22 -23h-476 q-124 0 -170 49q-23 25 -33.5 59.5t-15.5 88.5q-12 127 -12 407zM289 1589l20 56q11 31 43 20l367 -152q18 -8 12 -30l-12 -35q-5 -14 -12.5 -16.5t-30.5 4.5l-357 112q-42 12 -30 41z" />
<glyph unicode="&#xc9;" horiz-adv-x="931" d="M129 604v117q0 226 12 407q6 100 47 144q50 53 172 53h476q22 0 22 -22v-41q0 -23 -22 -23h-469q-72 0 -97 -25t-30 -100q-13 -187 -13 -385h500q23 0 23 -22v-41q0 -23 -23 -23h-500q0 -192 13 -432q5 -75 30 -100t97 -25h469q22 0 22 -23v-40q0 -23 -22 -23h-476 q-124 0 -170 49q-23 25 -33.5 59.5t-15.5 88.5q-12 127 -12 407zM352 1483q-6 22 13 30l366 152q32 11 43 -20l21 -56q12 -29 -31 -41l-356 -112q-23 -7 -30.5 -4.5t-12.5 16.5z" />
<glyph unicode="&#xca;" horiz-adv-x="931" d="M129 604v117q0 226 12 407q6 100 47 144q50 53 172 53h476q22 0 22 -22v-41q0 -23 -22 -23h-469q-72 0 -97 -25t-30 -100q-13 -187 -13 -385h500q23 0 23 -22v-41q0 -23 -23 -23h-500q0 -192 13 -432q5 -75 30 -100t97 -25h469q22 0 22 -23v-40q0 -23 -22 -23h-476 q-124 0 -170 49q-23 25 -33.5 59.5t-15.5 88.5q-12 127 -12 407zM238 1466q-16 13 2 31l227 250q12 14 31 14h49q19 0 31 -14l227 -250q17 -17 2 -31l-39 -32q-16 -13 -35 6l-205 211h-12l-205 -211q-21 -20 -35 -6z" />
<glyph unicode="&#xcb;" horiz-adv-x="931" d="M129 604v117q0 226 12 407q6 100 47 144q50 53 172 53h476q22 0 22 -22v-41q0 -23 -22 -23h-469q-72 0 -97 -25t-30 -100q-13 -187 -13 -385h500q23 0 23 -22v-41q0 -23 -23 -23h-500q0 -192 13 -432q5 -75 30 -100t97 -25h469q22 0 22 -23v-40q0 -23 -22 -23h-476 q-124 0 -170 49q-23 25 -33.5 59.5t-15.5 88.5q-12 127 -12 407zM276 1548v43q0 38 15.5 52t54.5 14h21q40 0 55.5 -14t15.5 -52v-43q0 -36 -15.5 -49.5t-55.5 -13.5h-21q-40 0 -55 13.5t-15 49.5zM606 1548v43q0 38 15.5 52t54.5 14h20q40 0 56 -14t16 -52v-43 q0 -36 -16 -49.5t-56 -13.5h-20q-40 0 -55 13.5t-15 49.5z" />
<glyph unicode="&#xcc;" horiz-adv-x="413" d="M-84 1589l21 56q11 31 43 20l366 -152q18 -8 12 -30l-12 -35q-5 -14 -12.5 -16.5t-30.5 4.5l-356 112q-43 12 -31 41zM160 23v1280q0 22 18 22h58q18 0 18 -22v-1280q0 -23 -18 -23h-58q-18 0 -18 23z" />
<glyph unicode="&#xcd;" horiz-adv-x="413" d="M55 1483q-6 22 13 30l366 152q32 11 43 -20l21 -56q12 -29 -31 -41l-356 -112q-23 -7 -30.5 -4.5t-12.5 16.5zM160 23v1280q0 22 18 22h58q18 0 18 -22v-1280q0 -23 -18 -23h-58q-18 0 -18 23z" />
<glyph unicode="&#xce;" horiz-adv-x="413" d="M-78 1466q-16 13 2 31l228 250q12 14 30 14h49q19 0 31 -14l227 -250q17 -17 3 -31l-39 -32q-16 -13 -35 6l-205 211h-12l-205 -211q-20 -20 -35 -6zM160 23v1280q0 22 18 22h58q18 0 18 -22v-1280q0 -23 -18 -23h-58q-18 0 -18 23z" />
<glyph unicode="&#xcf;" horiz-adv-x="413" d="M-35 1548v43q0 38 15.5 52t54.5 14h20q40 0 56 -14t16 -52v-43q0 -36 -16 -49.5t-56 -13.5h-20q-40 0 -55 13.5t-15 49.5zM160 23v1280q0 22 18 22h58q18 0 18 -22v-1280q0 -23 -18 -23h-58q-18 0 -18 23zM295 1548v43q0 38 15.5 52t54.5 14h20q40 0 56 -14t16 -52v-43 q0 -36 -16 -49.5t-56 -13.5h-20q-40 0 -55 13.5t-15 49.5z" />
<glyph unicode="&#xd0;" horiz-adv-x="1202" d="M20 662v45q0 16 21 16h145v573q0 36 37 41q110 11 256 11q105 0 184 -11t150 -37.5t120 -72.5t84.5 -114.5t52.5 -165.5t17 -224v-96q0 -166 -28 -281t-92.5 -194t-170 -115.5t-259.5 -36.5h-310q-41 -3 -41 37v608h-145q-21 0 -21 17zM281 104q0 -18 16 -18h188 q139 0 225 19.5t144 70.5q68 59 99.5 168.5t31.5 298.5v55q0 181 -28.5 281t-90.5 168q-59 65 -151.5 90t-227.5 25q-103 0 -182 -5q-24 -3 -24 -28v-506h313q20 0 20 -16v-45q0 -17 -20 -17h-313v-541z" />
<glyph unicode="&#xd1;" horiz-adv-x="1220" d="M147 23v1237q0 38 14 51.5t50 13.5h41q39 0 57 -12t37 -49l623 -1182h12v1221q0 22 18 22h54q20 0 20 -22v-1242q0 -33 -12.5 -47t-42.5 -14h-55q-50 0 -72 43l-639 1200h-12v-1220q0 -23 -19 -23h-53q-21 0 -21 23zM287 1532q35 73 86 111t112 38q59 0 121 -47l56 -43 q44 -30 75 -30q29 0 61.5 29.5t59.5 74.5q8 11 19 6l43 -29q16 -9 6 -26q-37 -68 -91 -111t-110 -43q-63 0 -119 45l-53 41q-47 35 -80 35q-60 0 -117 -102q-9 -14 -24 -4l-41 26q-16 9 -4 29z" />
<glyph unicode="&#xd2;" horiz-adv-x="1163" d="M115 604v115q0 201 27 315.5t94 188.5q105 120 346 120t346 -120q67 -74 94 -188.5t27 -315.5v-115q0 -200 -27 -314t-94 -188q-105 -120 -346 -120t-346 120q-67 74 -94 188t-27 314zM213 633q0 -182 20 -287.5t74 -173.5q39 -51 112.5 -77.5t162.5 -26.5t162 26.5 t112 77.5q54 68 74 173.5t20 287.5v59q0 192 -20 293t-74 170q-38 51 -111 76.5t-163 25.5t-163.5 -25.5t-111.5 -76.5q-54 -69 -74 -170t-20 -293v-59zM350 1589l21 56q11 31 43 20l366 -152q19 -8 13 -30l-13 -35q-5 -14 -12.5 -16.5t-30.5 4.5l-356 112q-43 12 -31 41z " />
<glyph unicode="&#xd3;" horiz-adv-x="1163" d="M115 604v115q0 201 27 315.5t94 188.5q105 120 346 120t346 -120q67 -74 94 -188.5t27 -315.5v-115q0 -200 -27 -314t-94 -188q-105 -120 -346 -120t-346 120q-67 74 -94 188t-27 314zM213 633q0 -182 20 -287.5t74 -173.5q39 -51 112.5 -77.5t162.5 -26.5t162 26.5 t112 77.5q54 68 74 173.5t20 287.5v59q0 192 -20 293t-74 170q-38 51 -111 76.5t-163 25.5t-163.5 -25.5t-111.5 -76.5q-54 -69 -74 -170t-20 -293v-59zM424 1483q-6 22 12 30l367 152q32 11 43 -20l20 -56q12 -29 -30 -41l-357 -112q-23 -7 -30.5 -4.5t-12.5 16.5z" />
<glyph unicode="&#xd4;" horiz-adv-x="1163" d="M115 604v115q0 201 27 315.5t94 188.5q105 120 346 120t346 -120q67 -74 94 -188.5t27 -315.5v-115q0 -200 -27 -314t-94 -188q-105 -120 -346 -120t-346 120q-67 74 -94 188t-27 314zM213 633q0 -182 20 -287.5t74 -173.5q39 -51 112.5 -77.5t162.5 -26.5t162 26.5 t112 77.5q54 68 74 173.5t20 287.5v59q0 192 -20 293t-74 170q-38 51 -111 76.5t-163 25.5t-163.5 -25.5t-111.5 -76.5q-54 -69 -74 -170t-20 -293v-59zM301 1466q-16 13 2 31l227 250q12 14 31 14h49q19 0 31 -14l227 -250q16 -17 2 -31l-39 -32q-15 -13 -34 6l-205 211 h-12l-205 -211q-21 -20 -35 -6z" />
<glyph unicode="&#xd5;" horiz-adv-x="1163" d="M115 604v115q0 201 27 315.5t94 188.5q105 120 346 120t346 -120q67 -74 94 -188.5t27 -315.5v-115q0 -200 -27 -314t-94 -188q-105 -120 -346 -120t-346 120q-67 74 -94 188t-27 314zM213 633q0 -182 20 -287.5t74 -173.5q39 -51 112.5 -77.5t162.5 -26.5t162 26.5 t112 77.5q54 68 74 173.5t20 287.5v59q0 192 -20 293t-74 170q-38 51 -111 76.5t-163 25.5t-163.5 -25.5t-111.5 -76.5q-54 -69 -74 -170t-20 -293v-59zM274 1532q35 73 86.5 111t112.5 38q59 0 121 -47l55 -43q43 -30 76 -30q29 0 61.5 29.5t59.5 74.5q8 11 18 6l43 -29 q16 -9 6 -26q-37 -68 -90.5 -111t-109.5 -43q-63 0 -119 45l-53 41q-47 35 -80 35q-60 0 -117 -102q-9 -15 -25 -4l-40 26q-16 10 -5 29z" />
<glyph unicode="&#xd6;" horiz-adv-x="1163" d="M115 604v115q0 201 27 315.5t94 188.5q105 120 346 120t346 -120q67 -74 94 -188.5t27 -315.5v-115q0 -200 -27 -314t-94 -188q-105 -120 -346 -120t-346 120q-67 74 -94 188t-27 314zM213 633q0 -182 20 -287.5t74 -173.5q39 -51 112.5 -77.5t162.5 -26.5t162 26.5 t112 77.5q54 68 74 173.5t20 287.5v59q0 192 -20 293t-74 170q-38 51 -111 76.5t-163 25.5t-163.5 -25.5t-111.5 -76.5q-54 -69 -74 -170t-20 -293v-59zM342 1548v43q0 38 15.5 52t54.5 14h20q40 0 56 -14t16 -52v-43q0 -36 -16 -49.5t-56 -13.5h-20q-40 0 -55 13.5 t-15 49.5zM672 1548v43q0 38 15 52t54 14h21q40 0 56 -14t16 -52v-43q0 -36 -16 -49.5t-56 -13.5h-21q-40 0 -54.5 13t-14.5 50z" />
<glyph unicode="&#xd7;" d="M207 283l254 252l-252 251q-12 12 0 21l43 45q10 6 18 -2l252 -252l254 254q10 7 17 0l45 -45q10 -9 0 -19l-252 -253l252 -252q12 -11 2 -21l-43 -43q-12 -9 -21 0l-254 254l-254 -254q-6 -10 -16 0l-43 43q-11 12 -2 21z" />
<glyph unicode="&#xd8;" horiz-adv-x="1163" d="M115 604v115q0 201 27 315.5t94 188.5q105 120 346 120q179 0 280 -65l66 127q7 12 24 4l39 -20q13 -8 6 -23l-71 -141q68 -74 95.5 -188.5t27.5 -317.5v-115q0 -200 -27 -314t-94 -188q-105 -120 -346 -120q-159 0 -258 51l-64 -123q-7 -12 -24 -4l-39 20q-14 9 -7 23 l66 131q-8 6 -20 22q-67 74 -94 188t-27 314zM213 633q0 -178 20.5 -283t71.5 -174l514 1014q-81 67 -237 67q-90 0 -163.5 -25.5t-111.5 -76.5q-54 -69 -74 -170t-20 -293v-59zM367 119q80 -51 215 -51q89 0 162 26.5t112 77.5q54 68 74 173.5t20 287.5v59q0 169 -17 267 t-59 165z" />
<glyph unicode="&#xd9;" horiz-adv-x="1167" d="M143 422v881q0 22 19 22h57q19 0 19 -22v-871q0 -103 16.5 -168.5t58.5 -111.5q81 -93 271 -93q189 0 270 93q42 46 59 111.5t17 168.5v871q0 22 18 22h58q18 0 18 -22v-881q0 -233 -104 -334q-106 -106 -336 -106t-336 106q-105 102 -105 334zM346 1589l21 56 q11 31 43 20l366 -152q18 -8 12 -30l-12 -35q-5 -14 -12.5 -16.5t-30.5 4.5l-356 112q-43 12 -31 41z" />
<glyph unicode="&#xda;" horiz-adv-x="1167" d="M143 422v881q0 22 19 22h57q19 0 19 -22v-871q0 -103 16.5 -168.5t58.5 -111.5q81 -93 271 -93q189 0 270 93q42 46 59 111.5t17 168.5v871q0 22 18 22h58q18 0 18 -22v-881q0 -233 -104 -334q-106 -106 -336 -106t-336 106q-105 102 -105 334zM371 1483q-6 22 12 30 l367 152q32 11 43 -20l20 -56q12 -29 -31 -41l-356 -112q-23 -7 -30.5 -4.5t-12.5 16.5z" />
<glyph unicode="&#xdb;" horiz-adv-x="1167" d="M143 422v881q0 22 19 22h57q19 0 19 -22v-871q0 -103 16.5 -168.5t58.5 -111.5q81 -93 271 -93q189 0 270 93q42 46 59 111.5t17 168.5v871q0 22 18 22h58q18 0 18 -22v-881q0 -233 -104 -334q-106 -106 -336 -106t-336 106q-105 102 -105 334zM303 1466q-16 13 2 31 l227 250q12 14 31 14h49q19 0 31 -14l227 -250q16 -17 2 -31l-38 -32q-16 -13 -35 6l-205 211h-12l-205 -211q-21 -20 -35 -6z" />
<glyph unicode="&#xdc;" horiz-adv-x="1167" d="M143 422v881q0 22 19 22h57q19 0 19 -22v-871q0 -103 16.5 -168.5t58.5 -111.5q81 -93 271 -93q189 0 270 93q42 46 59 111.5t17 168.5v871q0 22 18 22h58q18 0 18 -22v-881q0 -233 -104 -334q-106 -106 -336 -106t-336 106q-105 102 -105 334zM336 1548v43q0 38 15.5 52 t54.5 14h20q40 0 56 -14t16 -52v-43q0 -36 -16 -49.5t-56 -13.5h-20q-40 0 -55 13.5t-15 49.5zM666 1548v43q0 38 15 52t54 14h21q40 0 55.5 -14t15.5 -52v-43q0 -36 -15.5 -49.5t-55.5 -13.5h-21q-40 0 -54.5 13t-14.5 50z" />
<glyph unicode="&#xdd;" horiz-adv-x="954" d="M57 1303q88 -263 168.5 -443t204.5 -401v-436q0 -23 19 -23h57q18 0 18 23v436q124 221 204.5 401t168.5 443q7 22 -12 22h-68q-15 0 -20 -16q-137 -420 -312 -734h-16q-172 310 -311 734q-5 16 -21 16h-67q-20 0 -13 -22zM297 1483q-6 22 12 30l367 152q32 11 43 -20 l20 -56q12 -29 -30 -41l-357 -112q-23 -7 -30.5 -4.5t-12.5 16.5z" />
<glyph unicode="&#xde;" horiz-adv-x="991" d="M147 23v1306q0 23 19 23h57q19 0 19 -23v-205q107 17 202 17q255 0 365.5 -92.5t110.5 -303.5v-22q0 -404 -459 -404q-114 0 -219 5v-301q0 -23 -19 -23h-57q-19 0 -19 23zM242 412q99 -6 209 -6q194 0 280 70t86 249v27q0 161 -84 232t-280 71q-99 0 -211 -19v-624z" />
<glyph unicode="&#xdf;" horiz-adv-x="999" d="M150 -98v1155q0 348 342 348q152 0 245.5 -78.5t93.5 -236.5v-29q0 -116 -50.5 -199.5t-147.5 -113.5v-7q144 -13 209 -98t65 -242v-22q0 -107 -17.5 -179t-59 -122.5t-112 -73t-175.5 -22.5q-114 0 -209 30q-15 4 -12 23l8 41q3 17 20 12q89 -25 197 -25 q155 0 212.5 70.5t57.5 247.5v10q0 165 -75 233t-248 68h-70q-23 0 -23 21v37q0 24 23 24h47q69 0 122 24t84.5 64.5t47.5 90.5t16 106v18q0 121 -65 183.5t-187 62.5q-136 0 -193.5 -70t-57.5 -239v-1112q0 -17 -17 -17h-57q-14 0 -14 17z" />
<glyph unicode="&#xe0;" horiz-adv-x="927" d="M86 266v25q0 75 16 126t56.5 89t113 56t181.5 18h102q46 0 147 -9v121q0 142 -59 196t-190 54q-117 0 -246 -37q-27 -8 -33 10l-8 37q-3 13 0.5 18.5t15.5 10.5q125 41 281 41q177 0 252.5 -82t75.5 -268v-654q0 -18 -19 -18h-45q-17 0 -20 20l-7 82h-4 q-35 -62 -98.5 -91t-177.5 -29h-41q-161 0 -227 65t-66 219zM176 252q0 -102 45 -146.5t141 -44.5h80q133 0 196.5 60t63.5 184v187q-74 8 -137 8h-129q-141 0 -200.5 -45t-59.5 -152v-51zM244 1391l26 53q14 32 45 16l347 -194q17 -10 8 -33l-15 -33q-6 -13 -14.5 -14.5 t-30.5 8.5l-340 154q-42 14 -26 43z" />
<glyph unicode="&#xe1;" horiz-adv-x="927" d="M86 266v25q0 75 16 126t56.5 89t113 56t181.5 18h102q46 0 147 -9v121q0 142 -59 196t-190 54q-117 0 -246 -37q-27 -8 -33 10l-8 37q-3 13 0.5 18.5t15.5 10.5q125 41 281 41q177 0 252.5 -82t75.5 -268v-654q0 -18 -19 -18h-45q-17 0 -20 20l-7 82h-4 q-35 -62 -98.5 -91t-177.5 -29h-41q-161 0 -227 65t-66 219zM176 252q0 -102 45 -146.5t141 -44.5h80q133 0 196.5 60t63.5 184v187q-74 8 -137 8h-129q-141 0 -200.5 -45t-59.5 -152v-51zM299 1233q-9 23 8 33l346 194q31 16 45 -16l27 -53q16 -28 -27 -43l-340 -154 q-22 -10 -30.5 -8.5t-14.5 14.5z" />
<glyph unicode="&#xe2;" horiz-adv-x="927" d="M86 266v25q0 75 16 126t56.5 89t113 56t181.5 18h102q46 0 147 -9v121q0 142 -59 196t-190 54q-117 0 -246 -37q-27 -8 -33 10l-8 37q-3 13 0.5 18.5t15.5 10.5q125 41 281 41q177 0 252.5 -82t75.5 -268v-654q0 -18 -19 -18h-45q-17 0 -20 20l-7 82h-4 q-35 -62 -98.5 -91t-177.5 -29h-41q-161 0 -227 65t-66 219zM176 252q0 -102 45 -146.5t141 -44.5h80q133 0 196.5 60t63.5 184v187q-74 8 -137 8h-129q-141 0 -200.5 -45t-59.5 -152v-51zM195 1204q-16 13 2 31l227 250q12 14 31 14h49q19 0 31 -14l227 -250q16 -17 2 -31 l-39 -33q-15 -13 -35 7l-205 211h-12l-205 -211q-21 -21 -35 -7z" />
<glyph unicode="&#xe3;" horiz-adv-x="927" d="M86 266v25q0 75 16 126t56.5 89t113 56t181.5 18h102q46 0 147 -9v121q0 142 -59 196t-190 54q-117 0 -246 -37q-27 -8 -33 10l-8 37q-3 13 0.5 18.5t15.5 10.5q125 41 281 41q177 0 252.5 -82t75.5 -268v-654q0 -18 -19 -18h-45q-17 0 -20 20l-7 82h-4 q-35 -62 -98.5 -91t-177.5 -29h-41q-161 0 -227 65t-66 219zM154 1276q35 73 86 111t112 38q59 0 121 -47l55 -43q44 -30 76 -30q29 0 61.5 29.5t59.5 74.5q8 11 18 6l43 -29q16 -10 7 -26q-37 -68 -91 -111t-110 -43q-63 0 -119 45l-53 41q-47 35 -80 35q-60 0 -117 -102 q-9 -14 -24 -4l-41 26q-16 9 -4 29zM176 252q0 -102 45 -146.5t141 -44.5h80q133 0 196.5 60t63.5 184v187q-74 8 -137 8h-129q-141 0 -200.5 -45t-59.5 -152v-51z" />
<glyph unicode="&#xe4;" horiz-adv-x="927" d="M86 266v25q0 75 16 126t56.5 89t113 56t181.5 18h102q46 0 147 -9v121q0 142 -59 196t-190 54q-117 0 -246 -37q-27 -8 -33 10l-8 37q-3 13 0.5 18.5t15.5 10.5q125 41 281 41q177 0 252.5 -82t75.5 -268v-654q0 -18 -19 -18h-45q-17 0 -20 20l-7 82h-4 q-35 -62 -98.5 -91t-177.5 -29h-41q-161 0 -227 65t-66 219zM176 252q0 -102 45 -146.5t141 -44.5h80q133 0 196.5 60t63.5 184v187q-74 8 -137 8h-129q-141 0 -200.5 -45t-59.5 -152v-51zM227 1296v43q0 38 15.5 52t54.5 14h20q40 0 56 -14t16 -52v-43q0 -36 -16 -49.5 t-56 -13.5h-20q-40 0 -55 13.5t-15 49.5zM557 1296v43q0 38 15.5 52t54.5 14h20q40 0 56 -14t16 -52v-43q0 -36 -16 -49.5t-56 -13.5h-20q-40 0 -55 13.5t-15 49.5z" />
<glyph unicode="&#xe5;" horiz-adv-x="927" d="M86 266v25q0 75 16 126t56.5 89t113 56t181.5 18h102q46 0 147 -9v121q0 142 -59 196t-190 54q-117 0 -246 -37q-27 -8 -33 10l-8 37q-3 13 0.5 18.5t15.5 10.5q125 41 281 41q177 0 252.5 -82t75.5 -268v-654q0 -18 -19 -18h-45q-17 0 -20 20l-7 82h-4 q-35 -62 -98.5 -91t-177.5 -29h-41q-161 0 -227 65t-66 219zM176 252q0 -102 45 -146.5t141 -44.5h80q133 0 196.5 60t63.5 184v187q-74 8 -137 8h-129q-141 0 -200.5 -45t-59.5 -152v-51zM301 1309q0 86 53.5 134t132.5 48q80 0 133.5 -48t53.5 -134t-53.5 -134.5 t-133.5 -48.5q-79 0 -132.5 48.5t-53.5 134.5zM389 1309q0 -48 27.5 -74.5t70.5 -26.5q44 0 71.5 26.5t27.5 74.5t-27.5 74t-71.5 26q-43 0 -70.5 -26t-27.5 -74z" />
<glyph unicode="&#xe6;" horiz-adv-x="1517" d="M86 266v25q0 75 16 126t56.5 89t113 56t181.5 18h102q46 0 147 -9v121q0 142 -59 196t-190 54q-129 0 -246 -37q-27 -8 -33 10l-8 37q-3 13 0.5 18.5t15.5 10.5q125 41 285 41q239 0 295 -162q40 84 114 123t193 39q175 0 258.5 -84t83.5 -279v-131q0 -48 -18.5 -67 t-65.5 -19h-534q4 -216 69 -297.5t225 -81.5q54 0 124.5 13.5t121.5 34.5q19 8 27 -9l14 -32q10 -21 -18 -33q-55 -25 -129.5 -40t-139.5 -15q-135 0 -222.5 48t-110.5 136q-23 -94 -105.5 -139t-228.5 -45h-41q-157 0 -225 65.5t-68 218.5zM176 252q0 -102 44 -146.5 t142 -44.5h99q241 0 241 244v125v25v37q-74 8 -137 8h-129q-141 0 -200.5 -45t-59.5 -152v-51zM795 528h495q12 0 17 1t8.5 8.5t3.5 23.5v72q0 169 -58.5 238t-191.5 69q-101 0 -157.5 -34.5t-85.5 -124t-31 -253.5z" />
<glyph unicode="&#xe7;" horiz-adv-x="817" d="M102 475v70q0 152 26.5 243t84.5 146q91 88 270 88q86 0 159.5 -22.5t121.5 -59.5q16 -11 6 -27l-27 -39q-9 -12 -26 0q-101 66 -236 66q-136 0 -202 -63q-55 -54 -70.5 -137t-15.5 -216v-35q0 -131 18.5 -212.5t67.5 -139.5q29 -34 88.5 -54t132.5 -20q115 0 215 41 q12 4 17.5 1t10.5 -15l9 -27q4 -18 1 -22.5t-18 -11.5q-46 -20 -112 -33.5t-123 -13.5h-4l-17 -125q36 8 70 8q61 0 98 -37t37 -111q0 -184 -215 -184q-76 0 -141 21q-16 5 -13 20l9 45q3 16 20 10q59 -16 129 -16q61 0 90 22t29 76q0 76 -80 76q-35 0 -80 -10q-15 -3 -22 2 l-15 8q-10 8 -8 20l25 179v2q-126 18 -195 84q-115 110 -115 403z" />
<glyph unicode="&#xe8;" horiz-adv-x="917" d="M102 455v92q0 250 86 362.5t281 112.5q172 0 257 -92t85 -279v-123q0 -48 -18.5 -67t-65.5 -19h-534q4 -216 69 -297.5t225 -81.5q54 0 124.5 13.5t121.5 34.5q21 8 27 -9l12 -32q6 -13 3 -20.5t-19 -14.5q-54 -24 -128.5 -38.5t-140.5 -14.5q-212 0 -298.5 108.5 t-86.5 364.5zM195 528h499q12 0 17 1t8.5 8.5t3.5 23.5v64q0 168 -61 241.5t-193 73.5q-99 0 -156 -35.5t-86.5 -125.5t-31.5 -251zM240 1391l26 53q14 32 45 16l346 -194q18 -10 9 -33l-15 -33q-6 -13 -14.5 -14.5t-30.5 8.5l-340 154q-42 14 -26 43z" />
<glyph unicode="&#xe9;" horiz-adv-x="917" d="M102 455v92q0 250 86 362.5t281 112.5q172 0 257 -92t85 -279v-123q0 -48 -18.5 -67t-65.5 -19h-534q4 -216 69 -297.5t225 -81.5q54 0 124.5 13.5t121.5 34.5q21 8 27 -9l12 -32q6 -13 3 -20.5t-19 -14.5q-54 -24 -128.5 -38.5t-140.5 -14.5q-212 0 -298.5 108.5 t-86.5 364.5zM195 528h499q12 0 17 1t8.5 8.5t3.5 23.5v64q0 168 -61 241.5t-193 73.5q-99 0 -156 -35.5t-86.5 -125.5t-31.5 -251zM270 1233q-9 23 9 33l346 194q31 16 45 -16l26 -53q16 -29 -26 -43l-340 -154q-22 -10 -30.5 -8.5t-14.5 14.5z" />
<glyph unicode="&#xea;" horiz-adv-x="917" d="M102 455v92q0 250 86 362.5t281 112.5q172 0 257 -92t85 -279v-123q0 -48 -18.5 -67t-65.5 -19h-534q4 -216 69 -297.5t225 -81.5q54 0 124.5 13.5t121.5 34.5q21 8 27 -9l12 -32q6 -13 3 -20.5t-19 -14.5q-54 -24 -128.5 -38.5t-140.5 -14.5q-212 0 -298.5 108.5 t-86.5 364.5zM188 1204q-16 13 2 31l228 250q12 14 31 14h49q18 0 30 -14l228 -250q16 -17 2 -31l-39 -33q-15 -13 -35 7l-205 211h-12l-205 -211q-21 -21 -35 -7zM195 528h499q12 0 17 1t8.5 8.5t3.5 23.5v64q0 168 -61 241.5t-193 73.5q-99 0 -156 -35.5t-86.5 -125.5 t-31.5 -251z" />
<glyph unicode="&#xeb;" horiz-adv-x="917" d="M102 455v92q0 250 86 362.5t281 112.5q172 0 257 -92t85 -279v-123q0 -48 -18.5 -67t-65.5 -19h-534q4 -216 69 -297.5t225 -81.5q54 0 124.5 13.5t121.5 34.5q21 8 27 -9l12 -32q6 -13 3 -20.5t-19 -14.5q-54 -24 -128.5 -38.5t-140.5 -14.5q-212 0 -298.5 108.5 t-86.5 364.5zM195 528h499q12 0 17 1t8.5 8.5t3.5 23.5v64q0 168 -61 241.5t-193 73.5q-99 0 -156 -35.5t-86.5 -125.5t-31.5 -251zM231 1296v43q0 38 15.5 52t54.5 14h21q40 0 55.5 -14t15.5 -52v-43q0 -36 -15.5 -49.5t-55.5 -13.5h-21q-40 0 -55 13.5t-15 49.5zM561 1296 v43q0 38 15.5 52t54.5 14h20q40 0 56 -14t16 -52v-43q0 -36 -16 -49.5t-56 -13.5h-20q-40 0 -55 13.5t-15 49.5z" />
<glyph unicode="&#xec;" horiz-adv-x="448" d="M-39 1393l27 53q14 32 45 16l346 -194q17 -10 8 -33l-14 -33q-6 -13 -14.5 -14.5t-30.5 8.5l-340 154q-43 15 -27 43zM180 16v971q0 17 15 17h57q16 0 16 -17v-971q0 -16 -16 -16h-57q-15 0 -15 16z" />
<glyph unicode="&#xed;" horiz-adv-x="448" d="M104 1233q-9 23 9 33l346 194q31 16 45 -16l26 -53q16 -29 -26 -43l-340 -154q-22 -10 -30.5 -8.5t-14.5 14.5zM180 16v971q0 17 15 17h57q16 0 16 -17v-971q0 -16 -16 -16h-57q-15 0 -15 16z" />
<glyph unicode="&#xee;" horiz-adv-x="448" d="M-59 1204q-16 13 2 31l227 250q12 14 31 14h49q19 0 31 -14l227 -250q16 -17 2 -31l-39 -33q-15 -13 -35 7l-205 211h-12l-205 -211q-20 -20 -34 -7zM180 16v971q0 17 15 17h57q16 0 16 -17v-971q0 -16 -16 -16h-57q-15 0 -15 16z" />
<glyph unicode="&#xef;" horiz-adv-x="448" d="M-20 1296v43q0 38 15 52t54 14h21q40 0 55.5 -14t15.5 -52v-43q0 -36 -15.5 -49.5t-55.5 -13.5h-21q-40 0 -54.5 13t-14.5 50zM180 16v971q0 17 15 17h57q16 0 16 -17v-971q0 -16 -16 -16h-57q-15 0 -15 16zM309 1296v43q0 38 15.5 52t54.5 14h20q40 0 56 -14t16 -52v-43 q0 -36 -16 -49.5t-56 -13.5h-20q-40 0 -55 13.5t-15 49.5z" />
<glyph unicode="&#xf0;" horiz-adv-x="1026" d="M102 428v61q0 212 100 335.5t298 123.5q163 0 258 -92l4 4q-74 215 -248 369l-190 -139q-14 -10 -27 8l-18 24q-11 17 4 29l172 123q-74 55 -172 96q-12 5 -14.5 9t1.5 16l17 39q7 18 24 12q115 -47 215 -119l162 117q16 13 27 -2l22 -29q8 -14 -4 -24l-149 -109 q166 -140 250 -338t84 -430v-57q0 -220 -111.5 -346.5t-298.5 -126.5q-196 0 -301 124t-105 322zM193 451q0 -191 81 -288t238 -97q151 0 233 104.5t82 300.5v23q0 191 -84.5 280.5t-236.5 89.5q-313 0 -313 -391v-22z" />
<glyph unicode="&#xf1;" horiz-adv-x="1019" d="M150 16v973q0 15 14 15h45q18 0 18 -17l6 -94h3q79 129 292 129q231 0 310 -143q45 -81 45 -254v-609q0 -16 -17 -16h-57q-14 0 -14 16v600q0 119 -24.5 184.5t-78.5 98.5q-63 38 -164 41q-141 3 -215.5 -67t-74.5 -228v-629q0 -16 -17 -16h-57q-14 0 -14 16zM197 1276 q35 73 86 111t112 38q59 0 121 -47l55 -43q43 -30 76 -30q29 0 61.5 29.5t59.5 74.5q8 11 18 6l43 -29q16 -10 7 -26q-37 -68 -91 -111t-110 -43q-63 0 -119 45l-53 41q-47 35 -80 35q-60 0 -117 -102q-9 -14 -24 -4l-41 26q-16 9 -4 29z" />
<glyph unicode="&#xf2;" horiz-adv-x="962" d="M102 457v90q0 141 24 238t87 153q98 84 268 84q178 0 269 -84q62 -56 86 -154t24 -237v-90q0 -139 -24 -237t-86 -154q-91 -84 -269 -84q-177 0 -268 84q-111 101 -111 391zM193 481q0 -127 12 -197.5t43 -115.5q70 -105 233 -105t234 105q31 45 43 115.5t12 197.5v41 q0 127 -12 198t-43 116q-70 104 -234 104q-163 0 -233 -104q-31 -45 -43 -116t-12 -198v-41zM242 1391l26 53q14 32 45 16l346 -194q18 -10 9 -33l-15 -33q-6 -13 -14.5 -14.5t-30.5 8.5l-340 154q-42 14 -26 43z" />
<glyph unicode="&#xf3;" horiz-adv-x="962" d="M102 457v90q0 141 24 238t87 153q98 84 268 84q178 0 269 -84q62 -56 86 -154t24 -237v-90q0 -139 -24 -237t-86 -154q-91 -84 -269 -84q-177 0 -268 84q-111 101 -111 391zM193 481q0 -127 12 -197.5t43 -115.5q70 -105 233 -105t234 105q31 45 43 115.5t12 197.5v41 q0 127 -12 198t-43 116q-70 104 -234 104q-163 0 -233 -104q-31 -45 -43 -116t-12 -198v-41zM281 1233q-9 23 8 33l346 194q31 16 45 -16l27 -53q16 -28 -27 -43l-340 -154q-22 -10 -30.5 -8.5t-14.5 14.5z" />
<glyph unicode="&#xf4;" horiz-adv-x="962" d="M102 457v90q0 141 24 238t87 153q98 84 268 84q178 0 269 -84q62 -56 86 -154t24 -237v-90q0 -139 -24 -237t-86 -154q-91 -84 -269 -84q-177 0 -268 84q-111 101 -111 391zM193 481q0 -127 12 -197.5t43 -115.5q70 -105 233 -105t234 105q31 45 43 115.5t12 197.5v41 q0 127 -12 198t-43 116q-70 104 -234 104q-163 0 -233 -104q-31 -45 -43 -116t-12 -198v-41zM203 1204q-16 13 2 31l227 250q12 14 31 14h49q19 0 31 -14l227 -250q16 -17 2 -31l-39 -33q-15 -13 -35 7l-204 211h-13l-205 -211q-20 -20 -34 -7z" />
<glyph unicode="&#xf5;" horiz-adv-x="962" d="M102 457v90q0 141 24 238t87 153q98 84 268 84q178 0 269 -84q62 -56 86 -154t24 -237v-90q0 -139 -24 -237t-86 -154q-91 -84 -269 -84q-177 0 -268 84q-111 101 -111 391zM166 1276q35 73 86.5 111t112.5 38q58 0 120 -47l56 -43q43 -30 75 -30q29 0 61.5 29.5 t59.5 74.5q8 11 19 6l43 -29q16 -9 6 -26q-37 -68 -91 -111t-110 -43q-63 0 -119 45l-53 41q-47 35 -80 35q-59 0 -116 -102q-9 -15 -25 -4l-41 26q-16 9 -4 29zM193 481q0 -127 12 -197.5t43 -115.5q70 -105 233 -105t234 105q31 45 43 115.5t12 197.5v41q0 127 -12 198 t-43 116q-70 104 -234 104q-163 0 -233 -104q-31 -45 -43 -116t-12 -198v-41z" />
<glyph unicode="&#xf6;" horiz-adv-x="962" d="M102 457v90q0 141 24 238t87 153q98 84 268 84q178 0 269 -84q62 -56 86 -154t24 -237v-90q0 -139 -24 -237t-86 -154q-91 -84 -269 -84q-177 0 -268 84q-111 101 -111 391zM193 481q0 -127 12 -197.5t43 -115.5q70 -105 233 -105t234 105q31 45 43 115.5t12 197.5v41 q0 127 -12 198t-43 116q-70 104 -234 104q-163 0 -233 -104q-31 -45 -43 -116t-12 -198v-41zM238 1296v43q0 38 15 52t54 14h21q40 0 55.5 -14t15.5 -52v-43q0 -36 -15.5 -49.5t-55.5 -13.5h-21q-40 0 -54.5 13t-14.5 50zM567 1296v43q0 38 15.5 52t54.5 14h20q40 0 56 -14 t16 -52v-43q0 -36 -16 -49.5t-56 -13.5h-20q-40 0 -55 13.5t-15 49.5z" />
<glyph unicode="&#xf7;" d="M109 504v61q0 15 12 15h805q12 0 12 -13v-63q0 -12 -12 -12h-805q-12 0 -12 12zM428 152v57q0 67 76 67h24q44 0 61 -16t17 -51v-57q0 -35 -17 -51.5t-61 -16.5h-24q-76 0 -76 68zM428 862v58q0 67 76 67h24q44 0 61 -16t17 -51v-58q0 -35 -17 -51t-61 -16h-24 q-76 0 -76 67z" />
<glyph unicode="&#xf8;" horiz-adv-x="962" d="M102 457v90q0 141 24 238t87 153q98 84 268 84q115 0 197 -37l61 123q6 15 25 6l33 -16q16 -9 8 -25l-66 -127l11 -8q62 -56 86 -154t24 -237v-90q0 -139 -24 -237t-86 -154q-91 -84 -269 -84q-125 0 -209 41l-59 -119q-6 -15 -25 -6l-32 16q-17 10 -9 25l64 127 q-109 101 -109 391zM193 481q0 -127 12 -197.5t43 -115.5l8 -12l381 749q-62 35 -156 35q-163 0 -233 -104q-31 -45 -43 -116t-12 -198v-41zM313 104q65 -41 168 -41q163 0 234 105q31 45 43 115.5t12 197.5v41q0 127 -12 198t-43 116l-19 22z" />
<glyph unicode="&#xf9;" horiz-adv-x="987" d="M139 301v686q0 17 17 17h55q16 0 16 -17v-674q0 -146 56 -196q36 -31 82.5 -44.5t128.5 -13.5t128.5 13.5t82.5 44.5q29 26 42 71.5t13 124.5v674q0 17 16 17h55q17 0 17 -17v-686q0 -89 -18.5 -147t-61.5 -97q-81 -75 -274 -75q-194 0 -275 75q-43 39 -61.5 97 t-18.5 147zM246 1391l26 53q14 32 45 16l347 -194q17 -10 8 -33l-15 -33q-6 -13 -14.5 -14.5t-30.5 8.5l-340 154q-42 14 -26 43z" />
<glyph unicode="&#xfa;" horiz-adv-x="987" d="M139 301v686q0 17 17 17h55q16 0 16 -17v-674q0 -146 56 -196q36 -31 82.5 -44.5t128.5 -13.5t128.5 13.5t82.5 44.5q29 26 42 71.5t13 124.5v674q0 17 16 17h55q17 0 17 -17v-686q0 -89 -18.5 -147t-61.5 -97q-81 -75 -274 -75q-194 0 -275 75q-43 39 -61.5 97 t-18.5 147zM317 1233q-9 23 9 33l346 194q31 16 45 -16l26 -53q16 -29 -26 -43l-340 -154q-22 -10 -30.5 -8.5t-14.5 14.5z" />
<glyph unicode="&#xfb;" horiz-adv-x="987" d="M139 301v686q0 17 17 17h55q16 0 16 -17v-674q0 -146 56 -196q36 -31 82.5 -44.5t128.5 -13.5t128.5 13.5t82.5 44.5q29 26 42 71.5t13 124.5v674q0 17 16 17h55q17 0 17 -17v-686q0 -89 -18.5 -147t-61.5 -97q-81 -75 -274 -75q-194 0 -275 75q-43 39 -61.5 97 t-18.5 147zM211 1204q-16 13 2 31l227 250q12 14 31 14h49q19 0 31 -14l227 -250q16 -17 2 -31l-39 -33q-15 -12 -34 7l-205 211h-13l-204 -211q-21 -21 -35 -7z" />
<glyph unicode="&#xfc;" horiz-adv-x="987" d="M139 301v686q0 17 17 17h55q16 0 16 -17v-674q0 -146 56 -196q36 -31 82.5 -44.5t128.5 -13.5t128.5 13.5t82.5 44.5q29 26 42 71.5t13 124.5v674q0 17 16 17h55q17 0 17 -17v-686q0 -89 -18.5 -147t-61.5 -97q-81 -75 -274 -75q-194 0 -275 75q-43 39 -61.5 97 t-18.5 147zM252 1296v43q0 38 15.5 52t54.5 14h20q40 0 56 -14t16 -52v-43q0 -36 -16 -49.5t-56 -13.5h-20q-40 0 -55 13.5t-15 49.5zM582 1296v43q0 38 15 52t54 14h21q40 0 55.5 -14t15.5 -52v-43q0 -36 -15.5 -49.5t-55.5 -13.5h-21q-40 0 -54.5 13t-14.5 50z" />
<glyph unicode="&#xfd;" horiz-adv-x="831" d="M49 983q-6 21 14 21h54q19 0 22 -19q79 -358 203 -747q26 -79 45.5 -104t63.5 -25h10q149 391 233 878q3 17 21 17h53q20 0 14 -21q-75 -344 -143 -585t-128 -398.5t-155 -368.5q-8 -20 -26 -12l-47 21q-17 8 -9 24q89 180 158 363q-55 2 -87 27.5t-58 92.5 q-115 313 -238 836zM268 1233q-9 23 8 33l347 194q31 16 45 -16l26 -53q16 -29 -26 -43l-340 -154q-22 -10 -30.5 -8.5t-14.5 14.5z" />
<glyph unicode="&#xfe;" horiz-adv-x="1013" d="M150 -348v1718q0 16 14 16h57q17 0 17 -16v-487h4q42 71 111 105t192 34q107 0 179 -28.5t112.5 -88.5t57.5 -140t17 -196v-118q0 -117 -16.5 -200t-56.5 -145.5t-110.5 -93t-174.5 -30.5q-128 0 -197.5 33.5t-111.5 99.5h-6v-463q0 -17 -17 -17h-57q-14 0 -14 17z M238 346q0 -134 82 -208.5t225 -74.5q103 0 160 32t86.5 119.5t29.5 250.5v86q0 100 -11.5 167t-42 120t-86.5 77.5t-142 24.5q-301 0 -301 -283v-311z" />
<glyph unicode="&#xff;" horiz-adv-x="831" d="M49 983q-6 21 14 21h54q19 0 22 -19q79 -358 203 -747q26 -79 45.5 -104t63.5 -25h10q149 391 233 878q3 17 21 17h53q20 0 14 -21q-75 -344 -143 -585t-128 -398.5t-155 -368.5q-8 -20 -26 -12l-47 21q-17 8 -9 24q89 180 158 363q-55 2 -87 27.5t-58 92.5 q-115 313 -238 836zM180 1296v43q0 38 15.5 52t54.5 14h20q40 0 56 -14t16 -52v-43q0 -36 -16 -49.5t-56 -13.5h-20q-40 0 -55 13.5t-15 49.5zM510 1296v43q0 38 15.5 52t54.5 14h20q40 0 56 -14t16 -52v-43q0 -36 -16 -49.5t-56 -13.5h-20q-40 0 -55 13.5t-15 49.5z" />
<glyph unicode="&#x152;" horiz-adv-x="1697" d="M115 604v115q0 201 27 315.5t94 188.5q105 120 346 120q213 0 348 -108q13 26 24 37q50 53 172 53h476q22 0 22 -22v-41q0 -23 -22 -23h-469q-72 0 -97 -25t-30 -100q-9 -129 -9 -385h496q23 0 23 -22v-41q0 -23 -23 -23h-496q0 -266 9 -432q5 -75 30 -100t97 -25h469 q22 0 22 -23v-40q0 -23 -22 -23h-476q-124 0 -170 49q-25 25 -32 55q-64 -64 -145.5 -93t-196.5 -29q-241 0 -346 120q-67 74 -94 188t-27 314zM213 633q0 -181 21 -286.5t75 -174.5q39 -51 111.5 -78.5t161.5 -27.5q222 0 325 131q-12 127 -12 407v117q0 215 12 430 q-127 109 -325 109q-89 0 -161.5 -27t-111.5 -78q-55 -70 -75.5 -171.5t-20.5 -291.5v-59z" />
<glyph unicode="&#x153;" horiz-adv-x="1585" d="M102 457v90q0 141 24 238t87 153q98 84 268 84q127 0 210.5 -46.5t129.5 -150.5q35 102 111 149.5t205 47.5q175 0 258.5 -84t83.5 -279v-131q0 -48 -18.5 -67t-65.5 -19h-535q4 -216 69.5 -297.5t225.5 -81.5q54 0 124.5 13.5t121.5 34.5q18 8 26 -9l15 -32 q10 -20 -19 -33q-55 -25 -129 -40t-139 -15q-285 0 -342 192q-32 -89 -116 -140.5t-216 -51.5q-177 0 -268 84q-111 101 -111 391zM193 481q0 -127 12 -197.5t43 -115.5q70 -105 233 -105t234 105q31 45 43 115.5t12 197.5v66v22q-3 104 -15.5 165t-39.5 102 q-70 104 -234 104q-163 0 -233 -104q-31 -45 -43 -116t-12 -198v-41zM862 528h496q9 0 13 0.5t8 3.5t5.5 10t1.5 19v72q0 169 -58 238t-191 69q-71 0 -119.5 -18.5t-84 -64.5t-53 -126.5t-18.5 -202.5z" />
<glyph unicode="&#x178;" horiz-adv-x="954" d="M57 1303q88 -263 168.5 -443t204.5 -401v-436q0 -23 19 -23h57q18 0 18 23v436q124 221 204.5 401t168.5 443q7 22 -12 22h-68q-15 0 -20 -16q-137 -420 -312 -734h-16q-172 310 -311 734q-5 16 -21 16h-67q-20 0 -13 -22zM233 1548v43q0 38 15.5 52t54.5 14h21 q40 0 55.5 -14t15.5 -52v-43q0 -36 -15.5 -49.5t-55.5 -13.5h-21q-40 0 -55 13.5t-15 49.5zM563 1548v43q0 38 15.5 52t54.5 14h20q40 0 56 -14t16 -52v-43q0 -36 -16 -49.5t-56 -13.5h-20q-40 0 -55 13.5t-15 49.5z" />
<glyph unicode="&#x2c6;" horiz-adv-x="763" d="M98 1204q-16 13 2 31l228 250q12 14 30 14h50q18 0 30 -14l228 -250q16 -17 2 -31l-39 -33q-15 -13 -35 7l-205 211h-12l-205 -211q-21 -21 -35 -7z" />
<glyph unicode="&#x2dc;" horiz-adv-x="851" d="M100 1276q35 73 86.5 111t112.5 38q59 0 121 -47l55 -43q43 -30 76 -30q29 0 61.5 29.5t59.5 74.5q8 11 18 6l43 -29q16 -9 6 -26q-37 -68 -90.5 -111t-109.5 -43q-63 0 -119 45l-53 41q-47 35 -80 35q-60 0 -117 -102q-9 -15 -25 -4l-41 26q-16 9 -4 29z" />
<glyph unicode="&#x2000;" horiz-adv-x="906" />
<glyph unicode="&#x2001;" horiz-adv-x="1812" />
<glyph unicode="&#x2002;" horiz-adv-x="906" />
<glyph unicode="&#x2003;" horiz-adv-x="1812" />
<glyph unicode="&#x2004;" horiz-adv-x="604" />
<glyph unicode="&#x2005;" horiz-adv-x="453" />
<glyph unicode="&#x2006;" horiz-adv-x="302" />
<glyph unicode="&#x2007;" horiz-adv-x="302" />
<glyph unicode="&#x2008;" horiz-adv-x="226" />
<glyph unicode="&#x2009;" horiz-adv-x="362" />
<glyph unicode="&#x200a;" horiz-adv-x="100" />
<glyph unicode="&#x2010;" horiz-adv-x="563" d="M72 504v61q0 15 14 15h391q15 0 15 -15v-61q0 -15 -15 -15h-391q-14 0 -14 15z" />
<glyph unicode="&#x2011;" horiz-adv-x="563" d="M72 504v61q0 15 14 15h391q15 0 15 -15v-61q0 -15 -15 -15h-391q-14 0 -14 15z" />
<glyph unicode="&#x2012;" horiz-adv-x="563" d="M72 504v61q0 15 14 15h391q15 0 15 -15v-61q0 -15 -15 -15h-391q-14 0 -14 15z" />
<glyph unicode="&#x2013;" horiz-adv-x="1024" d="M0 504v61q0 15 14 15h996q14 0 14 -15v-61q0 -15 -14 -15h-996q-14 0 -14 15z" />
<glyph unicode="&#x2014;" horiz-adv-x="2048" d="M0 504v61q0 15 14 15h2020q14 0 14 -15v-61q0 -15 -14 -15h-2020q-14 0 -14 15z" />
<glyph unicode="&#x2018;" horiz-adv-x="417" d="M143 1042v41q0 151 107 310q8 14 22 6l39 -23q12 -6 2 -20q-55 -83 -75 -158q-6 -26 16 -37l25 -10q36 -14 36 -59v-68q0 -68 -65 -68h-27q-40 0 -60 19.5t-20 66.5z" />
<glyph unicode="&#x2019;" horiz-adv-x="417" d="M102 1270v67q0 68 66 68h27q40 0 59.5 -19t19.5 -67v-41q0 -152 -106 -309q-9 -15 -23 -6l-39 22q-13 6 -2 21q57 87 76 157q6 26 -16 37l-25 10q-37 15 -37 60z" />
<glyph unicode="&#x201a;" horiz-adv-x="417" d="M102 43v68q0 67 66 67h27q40 0 59.5 -19t19.5 -67v-41q0 -152 -106 -309q-9 -15 -23 -6l-39 22q-13 6 -2 21q57 86 76 158q6 25 -16 36l-25 11q-37 15 -37 59z" />
<glyph unicode="&#x201c;" horiz-adv-x="692" d="M143 1044v41q0 151 107 310q8 14 22 6l39 -23q12 -6 2 -20q-55 -83 -75 -158q-6 -26 16 -37l25 -10q36 -14 36 -59v-68q0 -68 -65 -68h-27q-40 0 -60 19.5t-20 66.5zM418 1044v41q0 153 106 310q9 15 23 6l39 -23q12 -6 2 -20q-57 -86 -76 -158q-6 -26 16 -37l25 -10 q37 -15 37 -59v-68q0 -68 -66 -68h-26q-40 0 -60 19.5t-20 66.5z" />
<glyph unicode="&#x201d;" horiz-adv-x="694" d="M102 1270v67q0 68 66 68h27q40 0 59.5 -19t19.5 -67v-41q0 -152 -106 -309q-9 -15 -23 -6l-39 22q-13 6 -2 21q57 87 76 157q6 26 -16 37l-25 10q-37 15 -37 60zM379 1270v67q0 68 65 68h27q40 0 60 -19.5t20 -66.5v-41q0 -150 -107 -309q-8 -14 -22 -6l-39 22 q-13 6 -2 21q57 87 76 157q6 26 -17 37l-24 10q-37 15 -37 60z" />
<glyph unicode="&#x201e;" horiz-adv-x="692" d="M102 43v68q0 67 66 67h27q40 0 59.5 -19t19.5 -67v-41q0 -152 -106 -309q-9 -15 -23 -6l-39 22q-13 6 -2 21q57 86 76 158q6 25 -16 36l-25 11q-37 15 -37 59zM377 43v68q0 67 65 67h27q40 0 60 -19.5t20 -66.5v-41q0 -150 -107 -309q-8 -14 -22 -6l-39 22q-13 6 -2 21 q57 86 76 158q5 25 -17 36l-24 11q-37 15 -37 59z" />
<glyph unicode="&#x2022;" horiz-adv-x="698" d="M127 535q0 94 63.5 158.5t157.5 64.5t158.5 -64.5t64.5 -158.5t-64.5 -158t-158.5 -64t-157.5 64t-63.5 158z" />
<glyph unicode="&#x2026;" horiz-adv-x="1136" d="M109 49v55q0 68 69 68h21q40 0 55.5 -16.5t15.5 -51.5v-55q0 -35 -15.5 -51t-55.5 -16h-21q-69 0 -69 67zM487 49v55q0 68 70 68h21q40 0 55.5 -16.5t15.5 -51.5v-55q0 -35 -15.5 -51t-55.5 -16h-21q-70 0 -70 67zM866 49v55q0 68 70 68h20q40 0 56 -16.5t16 -51.5v-55 q0 -35 -16 -51t-56 -16h-20q-70 0 -70 67z" />
<glyph unicode="&#x202f;" horiz-adv-x="362" />
<glyph unicode="&#x2039;" horiz-adv-x="557" d="M92 457v35q0 14 10 24l279 234q14 11 25 0l32 -33q12 -11 -2 -25l-233 -217l233 -221q14 -14 2 -25l-32 -32q-11 -11 -25 0l-279 235q-10 10 -10 25z" />
<glyph unicode="&#x203a;" horiz-adv-x="557" d="M119 229q-11 11 2 25l233 221l-233 217q-13 14 -2 25l33 33q11 11 24 0l279 -234q10 -10 10 -24v-35q0 -15 -10 -25l-279 -235q-13 -11 -24 0z" />
<glyph unicode="&#x205f;" horiz-adv-x="453" />
<glyph unicode="&#x20ac;" d="M39 479v62q0 12 14 12h150v145h-150q-14 0 -14 13v61q0 12 14 12h150q3 198 34.5 301t106.5 166q111 92 299 92q180 0 324 -75q24 -12 12 -37l-14 -31q-9 -20 -33 -8q-143 65 -287 65q-85 0 -142 -18t-102 -61q-53 -52 -73 -139.5t-23 -254.5h457q14 0 14 -12v-61 q0 -13 -14 -13h-457v-2v-143h457q14 0 14 -12v-62q0 -12 -14 -12h-457q3 -107 18.5 -176t54 -123t108.5 -78t178 -24q65 0 142 15t134 36q24 8 29 -11l12 -38q7 -20 -12 -27q-142 -61 -322 -61q-125 0 -208.5 27.5t-134 90t-73.5 150t-28 219.5h-150q-14 0 -14 12z" />
<glyph unicode="&#x2122;" horiz-adv-x="1316" d="M53 1272v41q0 12 13 12h407q10 0 10 -12v-41q0 -15 -10 -15h-166v-532q0 -9 -2.5 -11.5t-11.5 -2.5h-47q-12 0 -14.5 2.5t-2.5 11.5v532h-163q-13 0 -13 15zM569 727q0 -16 17 -16h43q14 0 14 14q10 268 27 510h6q61 -217 127 -428q9 -27 35 -27h51q29 0 35 27 q53 163 131 428h6q15 -212 26 -510q0 -14 15 -14h45q18 0 18 16q-9 227 -35 576q0 22 -26 22h-76q-25 0 -33 -22q-72 -269 -127 -439h-8q-51 152 -125 439q-5 22 -30 22h-76q-25 0 -25 -22q-23 -278 -35 -576z" />
<glyph unicode="&#xe000;" horiz-adv-x="1003" d="M0 0v1004h1004v-1004h-1004z" />
</font>
</defs>
</svg>
